SplineFontDB: 3.2
FontName: Altinn-DIN-Italic
FullName: Altinn-DIN Italic
FamilyName: Altinn-DIN
Weight: Book
Copyright: Copyright (c) Altinn. All rights reserved.
Version: 2.00
ItalicAngle: -12
UnderlinePosition: -153
UnderlineWidth: 51
Ascent: 782
Descent: 242
InvalidEm: 0
sfntRevision: 0x00010000
LayerCount: 2
Layer: 0 1 "Back" 1
Layer: 1 1 "Fore" 0
XUID: [1021 976 -1802971697 23702]
StyleMap: 0x0001
FSType: 0
OS2Version: 4
OS2_WeightWidthSlopeOnly: 0
OS2_UseTypoMetrics: 1
CreationTime: 1462909533
ModificationTime: 1574419052
PfmFamily: 33
TTFWeight: 400
TTFWidth: 5
LineGap: 88
VLineGap: 0
Panose: 2 11 5 4 3 2 2 10 2 4
OS2TypoAscent: 801
OS2TypoAOffset: 0
OS2TypoDescent: -248
OS2TypoDOffset: 0
OS2TypoLinegap: 0
OS2WinAscent: 924
OS2WinAOffset: 0
OS2WinDescent: 188
OS2WinDOffset: 0
HheadAscent: 851
HheadAOffset: 0
HheadDescent: -173
HheadDOffset: 0
OS2SubXSize: 666
OS2SubYSize: 614
OS2SubXOff: -16
OS2SubYOff: 77
OS2SupXSize: 666
OS2SupYSize: 614
OS2SupXOff: 76
OS2SupYOff: 358
OS2StrikeYSize: 51
OS2StrikeYPos: 311
OS2CapHeight: 707
OS2XHeight: 519
OS2Vendor: 'MONO'
OS2CodePages: 20000001.00000000
OS2UnicodeRanges: 8000006f.4000000a.00000000.00000000
Lookup: 1 0 0 "'aalt' Access All Alternates lookup 0" { "'aalt' Access All Alternates lookup 0 subtable"  } ['aalt' ('DFLT' <'dflt' > ) ]
Lookup: 1 0 0 "'sups' Superscript lookup 1" { "'sups' Superscript lookup 1 subtable" ("superior") } ['sups' ('DFLT' <'dflt' > ) ]
Lookup: 4 0 0 "'frac' Diagonal Fractions lookup 2" { "'frac' Diagonal Fractions lookup 2 subtable"  } ['frac' ('DFLT' <'dflt' > ) ]
Lookup: 6 0 0 "'ordn' Ordinals lookup 3" { "'ordn' Ordinals lookup 3 contextual 0"  "'ordn' Ordinals lookup 3 contextual 1"  } ['ordn' ('DFLT' <'dflt' > ) ]
Lookup: 4 0 0 "'dlig' Discretionary Ligatures lookup 4" { "'dlig' Discretionary Ligatures lookup 4 subtable"  } ['dlig' ('DFLT' <'dflt' > ) ]
Lookup: 4 0 1 "'liga' Standard Ligatures lookup 5" { "'liga' Standard Ligatures lookup 5 subtable"  } ['liga' ('DFLT' <'dflt' > ) ]

StartChar: .notdef
Encoding: 65536 -1 0
Width: 614
Flags: W
LayerCount: 2
Fore
SplineSet
124 707 m 1,0,-1
 530 707 l 1,1,-1
 530 0 l 1,2,-1
 124 0 l 1,3,-1
 124 707 l 1,0,-1
496 35 m 1,4,-1
 496 672 l 1,5,-1
 159 672 l 1,6,-1
 159 35 l 1,7,-1
 496 35 l 1,4,-1
EndSplineSet
Validated: 1
EndChar

StartChar: exclam
Encoding: 33 33 4
Width: 244
GlyphClass: 2
Flags: W
LayerCount: 2
Fore
SplineSet
175 707 m 1,0,-1
 261 707 l 1,1,-1
 138 201 l 1,2,-1
 82 201 l 1,3,-1
 175 707 l 1,0,-1
42 95 m 1,4,-1
 133 95 l 1,5,-1
 113 0 l 1,6,-1
 22 0 l 1,7,-1
 42 95 l 1,4,-1
EndSplineSet
Validated: 1
EndChar

StartChar: quotedbl
Encoding: 34 34 5
Width: 315
GlyphClass: 2
Flags: W
LayerCount: 2
Fore
SplineSet
148 707 m 1,0,-1
 216 707 l 1,1,-1
 166 471 l 1,2,-1
 98 471 l 1,3,-1
 148 707 l 1,0,-1
288 707 m 1,4,-1
 355 707 l 1,5,-1
 306 471 l 1,6,-1
 238 471 l 1,7,-1
 288 707 l 1,4,-1
EndSplineSet
Validated: 1
EndChar

StartChar: numbersign
Encoding: 35 35 6
Width: 524
GlyphClass: 2
Flags: W
LayerCount: 2
Fore
SplineSet
440 440 m 1,0,-1
 386 284 l 1,1,-1
 478 284 l 1,2,-1
 466 226 l 1,3,-1
 367 226 l 1,4,-1
 289 0 l 1,5,-1
 227 0 l 1,6,-1
 305 226 l 1,7,-1
 165 226 l 1,8,-1
 87 0 l 1,9,-1
 26 0 l 1,10,-1
 103 226 l 1,11,-1
 18 226 l 1,12,-1
 31 284 l 1,13,-1
 123 284 l 1,14,-1
 177 440 l 1,15,-1
 89 440 l 1,16,-1
 100 497 l 1,17,-1
 197 497 l 1,18,-1
 268 707 l 1,19,-1
 330 707 l 1,20,-1
 258 497 l 1,21,-1
 398 497 l 1,22,-1
 471 707 l 1,23,-1
 531 707 l 1,24,-1
 460 497 l 1,25,-1
 549 497 l 1,26,-1
 537 440 l 1,27,-1
 440 440 l 1,0,-1
379 440 m 1,28,-1
 239 440 l 1,29,-1
 184 284 l 1,30,-1
 326 284 l 1,31,-1
 379 440 l 1,28,-1
EndSplineSet
Validated: 1
EndChar

StartChar: dollar
Encoding: 36 36 7
Width: 467
GlyphClass: 2
Flags: W
LayerCount: 2
Fore
SplineSet
392 499 m 1,0,1
 394 519 394 519 394 528 c 0,2,3
 394 595 394 595 337 610 c 1,4,-1
 290 386 l 1,5,-1
 301 384 l 2,6,7
 416 361 416 361 416 260 c 0,8,9
 416 232 416 232 411 211 c 0,10,11
 392 130 392 130 341.5 83 c 128,-1,12
 291 36 291 36 214 29 c 1,13,-1
 195 -60 l 1,14,-1
 135 -60 l 1,15,-1
 155 30 l 1,16,17
 92 37 92 37 57 73 c 128,-1,18
 22 109 22 109 22 171 c 0,19,20
 22 191 22 191 25 214 c 1,21,-1
 95 214 l 1,22,23
 93 194 93 194 93 186 c 0,24,25
 93 108 93 108 168 93 c 1,26,-1
 218 329 l 1,27,-1
 206 331 l 2,28,29
 150 343 150 343 120.5 371.5 c 128,-1,30
 91 400 91 400 91 451 c 0,31,32
 91 477 91 477 96 498 c 0,33,34
 114 578 114 578 165.5 624.5 c 128,-1,35
 217 671 217 671 292 676 c 1,36,-1
 309 759 l 1,37,-1
 369 759 l 1,38,-1
 350 674 l 1,39,40
 403 665 403 665 434 630.5 c 128,-1,41
 465 596 465 596 465 536 c 0,42,43
 465 512 465 512 463 499 c 1,44,-1
 392 499 l 1,0,1
232 398 m 1,46,-1
 278 611 l 1,47,48
 235 605 235 605 206 576.5 c 128,-1,49
 177 548 177 548 169 503 c 0,50,51
 165 480 165 480 165 472 c 0,52,45
 164 413 164 413 232 398 c 1,46,-1
325.5 289 m 128,-1,54
 309 307 309 307 274 315 c 1,55,-1
 227 93 l 1,56,57
 272 100 272 100 299 128.5 c 128,-1,58
 326 157 326 157 338 206 c 0,59,60
 342 223 342 223 342 241 c 0,61,53
 342 271 342 271 325.5 289 c 128,-1,54
186 706 m 1024,62,-1
EndSplineSet
Validated: 33
EndChar

StartChar: percent
Encoding: 37 37 8
Width: 911
GlyphClass: 2
Flags: W
LayerCount: 2
Fore
SplineSet
85 367 m 0,1,2
 85 396 85 396 92 425 c 2,3,-1
 123 567 l 2,4,5
 138 640 138 640 175.5 677 c 128,-1,6
 213 714 213 714 274 714 c 0,7,8
 376 714 376 714 377 623 c 0,9,10
 377 598 377 598 371 567 c 2,11,-1
 341 425 l 2,12,13
 326 349 326 349 289 311 c 128,-1,14
 252 273 252 273 187 273 c 0,15,0
 85 274 85 274 85 367 c 0,1,2
711 707 m 1,16,-1
 774 707 l 1,17,-1
 242 0 l 1,18,-1
 177 0 l 1,19,-1
 711 707 l 1,16,-1
245.5 354.5 m 128,-1,21
 261 376 261 376 271 428 c 2,22,-1
 299 561 l 2,23,24
 306 597 306 597 306 611 c 0,25,26
 306 633 306 633 296 643 c 128,-1,27
 286 653 286 653 263 653 c 0,28,29
 232 653 232 653 217 632 c 128,-1,30
 202 611 202 611 191 561 c 2,31,-1
 163 428 l 2,32,33
 156 392 156 392 156 376 c 0,34,35
 156 353 156 353 166 343 c 128,-1,36
 176 333 176 333 199 333 c 0,37,20
 230 333 230 333 245.5 354.5 c 128,-1,21
572 87 m 0,39,40
 572 116 572 116 580 145 c 2,41,-1
 610 288 l 2,42,43
 625 361 625 361 662.5 397.5 c 128,-1,44
 700 434 700 434 762 434 c 0,45,46
 864 434 864 434 864 343 c 0,47,48
 864 318 864 318 858 288 c 2,49,-1
 828 145 l 2,50,51
 813 69 813 69 776 31.5 c 128,-1,52
 739 -6 739 -6 675 -6 c 0,53,38
 572 -6 572 -6 572 87 c 0,39,40
733.5 74.5 m 128,-1,55
 749 96 749 96 759 148 c 2,56,-1
 786 282 l 2,57,58
 793 318 793 318 794 332 c 0,59,60
 794 354 794 354 783.5 364 c 128,-1,61
 773 374 773 374 751 374 c 0,62,63
 720 374 720 374 704.5 353 c 128,-1,64
 689 332 689 332 679 282 c 2,65,-1
 650 148 l 2,66,67
 643 112 643 112 643 96 c 0,68,69
 643 73 643 73 653.5 63 c 128,-1,70
 664 53 664 53 686 53 c 0,71,54
 718 53 718 53 733.5 74.5 c 128,-1,55
EndSplineSet
Validated: 1
EndChar

StartChar: ampersand
Encoding: 38 38 9
Width: 614
GlyphClass: 2
Flags: W
LayerCount: 2
Fore
SplineSet
467 74 m 128,-1,1
 477 67 477 67 489 67 c 2,2,-1
 513 67 l 1,3,-1
 499 0 l 1,4,-1
 464 0 l 2,5,6
 437 0 437 0 423 9.5 c 128,-1,7
 409 19 409 19 395 46 c 2,8,-1
 376 86 l 1,9,10
 325 35 325 35 277.5 12.5 c 128,-1,11
 230 -10 230 -10 179 -10 c 0,12,13
 112 -10 112 -10 75.5 29 c 128,-1,14
 39 68 39 68 39 133 c 0,15,16
 39 202 39 202 81.5 260.5 c 128,-1,17
 124 319 124 319 226 393 c 1,18,19
 198 450 198 450 186.5 484 c 128,-1,20
 175 518 175 518 175 547 c 0,21,22
 175 595 175 595 197.5 634 c 128,-1,23
 220 673 220 673 259 695 c 128,-1,24
 298 717 298 717 345 717 c 0,25,26
 405 717 405 717 441.5 684.5 c 128,-1,27
 478 652 478 652 478 597 c 0,28,29
 478 540 478 540 441 493 c 128,-1,30
 404 446 404 446 311 380 c 1,31,-1
 399 198 l 1,32,-1
 498 299 l 1,33,-1
 538 257 l 1,34,-1
 427 140 l 1,35,-1
 450 94 l 2,36,0
 457 81 457 81 467 74 c 128,-1,1
273 627.5 m 128,-1,38
 247 600 247 600 247 557 c 0,39,40
 247 537 247 537 255 510 c 128,-1,41
 263 483 263 483 285 435 c 1,42,43
 335 471 335 471 360.5 494.5 c 128,-1,44
 386 518 386 518 397.5 540 c 128,-1,45
 409 562 409 562 409 591 c 256,46,47
 409 620 409 620 390 637.5 c 128,-1,48
 371 655 371 655 339 655 c 0,49,37
 299 655 299 655 273 627.5 c 128,-1,38
265 75 m 128,-1,51
 299 95 299 95 348 143 c 1,52,-1
 253 338 l 1,53,54
 175 281 175 281 143 237.5 c 128,-1,55
 111 194 111 194 111 142 c 0,56,57
 111 102 111 102 133.5 78.5 c 128,-1,58
 156 55 156 55 196 55 c 0,59,50
 231 55 231 55 265 75 c 128,-1,51
EndSplineSet
Validated: 1
EndChar

StartChar: quotesingle
Encoding: 39 39 10
Width: 175
GlyphClass: 2
Flags: W
LayerCount: 2
Fore
SplineSet
148 707 m 1,0,-1
 216 707 l 1,1,-1
 166 471 l 1,2,-1
 98 471 l 1,3,-1
 148 707 l 1,0,-1
EndSplineSet
Validated: 1
EndChar

StartChar: parenleft
Encoding: 40 40 11
Width: 295
GlyphClass: 2
Flags: W
LayerCount: 2
Fore
SplineSet
59 173 m 0,1,2
 59 252 59 252 77 336 c 0,3,4
 123 557 123 557 288 758 c 1,5,-1
 341 758 l 1,6,7
 268 658 268 658 219 550 c 128,-1,8
 170 442 170 442 147 336 c 0,9,10
 128 246 128 246 128 148 c 0,11,12
 128 24 128 24 162 -86 c 1,13,-1
 109 -86 l 1,14,0
 59 40 59 40 59 173 c 0,1,2
EndSplineSet
Validated: 1
EndChar

StartChar: parenright
Encoding: 41 41 12
Width: 295
GlyphClass: 2
Flags: W
LayerCount: 2
Fore
SplineSet
109.5 121.5 m 128,-1,1
 160 230 160 230 181 336 c 0,2,3
 200 431 200 431 201 520 c 0,4,5
 201 644 201 644 166 758 c 1,6,-1
 219 758 l 1,7,8
 269 635 269 635 269 498 c 0,9,10
 269 421 269 421 252 336 c 0,11,12
 207 117 207 117 40 -86 c 1,13,-1
 -13 -86 l 1,14,0
 59 13 59 13 109.5 121.5 c 128,-1,1
EndSplineSet
Validated: 1
EndChar

StartChar: asterisk
Encoding: 42 42 13
Width: 387
GlyphClass: 2
Flags: W
LayerCount: 2
Fore
SplineSet
227 530 m 1,0,-1
 129 480 l 1,1,-1
 115 517 l 1,2,-1
 216 569 l 1,3,-1
 137 621 l 1,4,-1
 166 657 l 1,5,-1
 244 606 l 1,6,-1
 265 707 l 1,7,-1
 312 707 l 1,8,-1
 291 607 l 1,9,-1
 389 657 l 1,10,-1
 402 621 l 1,11,-1
 302 569 l 1,12,-1
 381 517 l 1,13,-1
 352 480 l 1,14,-1
 274 530 l 1,15,-1
 252 425 l 1,16,-1
 205 425 l 1,17,-1
 227 530 l 1,0,-1
EndSplineSet
Validated: 1
EndChar

StartChar: plus
Encoding: 43 43 14
Width: 524
GlyphClass: 2
Flags: W
LayerCount: 2
Fore
SplineSet
233 249 m 1,0,-1
 63 249 l 1,1,-1
 63 316 l 1,2,-1
 233 316 l 1,3,-1
 233 486 l 1,4,-1
 301 486 l 1,5,-1
 301 316 l 1,6,-1
 471 316 l 1,7,-1
 471 249 l 1,8,-1
 301 249 l 1,9,-1
 301 79 l 1,10,-1
 233 79 l 1,11,-1
 233 249 l 1,0,-1
EndSplineSet
Validated: 1
EndChar

StartChar: comma
Encoding: 44 44 15
Width: 178
GlyphClass: 2
Flags: W
LayerCount: 2
Fore
SplineSet
20 95 m 1,0,-1
 88 95 l 1,1,-1
 52 -77 l 1,2,-1
 -32 -140 l 1,3,-1
 20 95 l 1,0,-1
EndSplineSet
Validated: 1
EndChar

StartChar: hyphen
Encoding: 45 45 16
Width: 403
GlyphClass: 2
Flags: W
LayerCount: 2
Fore
SplineSet
88 389 m 1,0,-1
 370 389 l 1,1,-1
 356 322 l 1,2,-1
 75 322 l 1,3,-1
 88 389 l 1,0,-1
EndSplineSet
Validated: 1
EndChar

StartChar: period
Encoding: 46 46 17
Width: 244
GlyphClass: 2
Flags: W
LayerCount: 2
Fore
SplineSet
42 94 m 1,0,-1
 133 94 l 1,1,-1
 113 0 l 1,2,-1
 23 0 l 1,3,-1
 42 94 l 1,0,-1
EndSplineSet
Validated: 1
EndChar

StartChar: slash
Encoding: 47 47 18
Width: 401
GlyphClass: 2
Flags: W
LayerCount: 2
Fore
SplineSet
375 707 m 1,0,-1
 436 707 l 1,1,-1
 65 -10 l 1,2,-1
 3 -10 l 1,3,-1
 375 707 l 1,0,-1
EndSplineSet
Validated: 1
EndChar

StartChar: zero
Encoding: 48 48 19
Width: 503
GlyphClass: 2
Flags: W
LayerCount: 2
Fore
SplineSet
89 28 m 128,-1,1
 49 66 49 66 49 139 c 0,2,3
 49 173 49 173 58 216 c 2,4,-1
 118 495 l 2,5,6
 143 608 143 608 196.5 662.5 c 128,-1,7
 250 717 250 717 341 717 c 0,8,9
 417 717 417 717 456.5 680 c 128,-1,10
 496 643 496 643 496 570 c 0,11,12
 496 536 496 536 486 495 c 2,13,-1
 427 216 l 2,14,15
 402 101 402 101 348.5 45.5 c 128,-1,16
 295 -10 295 -10 204 -10 c 0,17,0
 129 -10 129 -10 89 28 c 128,-1,1
303.5 96.5 m 128,-1,19
 335 136 335 136 355 230 c 2,20,-1
 408 476 l 2,21,22
 418 523 418 523 418 558 c 0,23,24
 418 606 418 606 397 627.5 c 128,-1,25
 376 649 376 649 331 649 c 0,26,27
 273 649 273 649 240.5 609.5 c 128,-1,28
 208 570 208 570 187 476 c 2,29,-1
 135 230 l 2,30,31
 125 185 125 185 125 151 c 0,32,33
 125 102 125 102 146.5 79.5 c 128,-1,34
 168 57 168 57 213 57 c 0,35,18
 272 57 272 57 303.5 96.5 c 128,-1,19
EndSplineSet
Validated: 1
EndChar

StartChar: one
Encoding: 49 49 20
Width: 336
GlyphClass: 2
Flags: W
LayerCount: 2
Fore
SplineSet
250 621 m 1,0,-1
 109 529 l 1,1,-1
 126 613 l 1,2,-1
 267 707 l 1,3,-1
 342 707 l 1,4,-1
 191 0 l 1,5,-1
 118 0 l 1,6,-1
 250 621 l 1,0,-1
EndSplineSet
Validated: 1
Substitution2: "'sups' Superscript lookup 1 subtable" uni00B9
Substitution2: "'aalt' Access All Alternates lookup 0 subtable" uni00B9
EndChar

StartChar: two
Encoding: 50 50 21
Width: 480
GlyphClass: 2
Flags: W
LayerCount: 2
Fore
SplineSet
18 60 m 1,0,-1
 329 400 l 2,1,2
 391 468 391 468 400 523 c 0,3,4
 406 559 406 559 407 569 c 0,5,6
 407 607 407 607 383.5 628.5 c 128,-1,7
 360 650 360 650 321 650 c 0,8,9
 273 650 273 650 240.5 621 c 128,-1,10
 208 592 208 592 195 536 c 2,11,-1
 190 517 l 1,12,-1
 116 517 l 1,13,-1
 120 540 l 2,14,15
 134 621 134 621 191 669 c 128,-1,16
 248 717 248 717 330 717 c 0,17,18
 401 717 401 717 442 678.5 c 128,-1,19
 483 640 483 640 483 580 c 0,20,21
 483 563 483 563 476 524 c 0,22,23
 468 481 468 481 445 444 c 128,-1,24
 422 407 422 407 381 361 c 2,25,-1
 114 67 l 1,26,-1
 379 67 l 1,27,-1
 365 0 l 1,28,-1
 6 0 l 1,29,-1
 18 60 l 1,0,-1
EndSplineSet
Validated: 1
Substitution2: "'sups' Superscript lookup 1 subtable" uni00B2
Substitution2: "'aalt' Access All Alternates lookup 0 subtable" uni00B2
EndChar

StartChar: three
Encoding: 51 51 22
Width: 506
GlyphClass: 2
Flags: W
LayerCount: 2
Fore
SplineSet
81.5 25 m 128,-1,1
 40 60 40 60 40 126 c 0,2,3
 40 154 40 154 45 175 c 1,4,-1
 120 175 l 1,5,6
 116 150 116 150 116 140 c 0,7,8
 116 98 116 98 140 77 c 128,-1,9
 164 56 164 56 210 56 c 0,10,11
 263 56 263 56 300 89 c 128,-1,12
 337 122 337 122 348 178 c 0,13,14
 357 223 357 223 357 242 c 0,15,16
 357 285 357 285 333 309 c 128,-1,17
 309 333 309 333 262 333 c 2,18,-1
 222 333 l 1,19,-1
 238 400 l 1,20,-1
 273 400 l 2,21,22
 324 400 324 400 361.5 432 c 128,-1,23
 399 464 399 464 409 516 c 0,24,25
 416 556 416 556 416 566 c 0,26,27
 416 605 416 605 392 627.5 c 128,-1,28
 368 650 368 650 327 650 c 0,29,30
 225 650 225 650 200 528 c 1,31,-1
 128 528 l 1,32,33
 166 716 166 716 339 717 c 0,34,35
 410 717 410 717 452 681 c 128,-1,36
 494 645 494 645 494 583 c 0,37,38
 494 563 494 563 483 517 c 0,39,40
 471 466 471 466 439 429 c 128,-1,41
 407 392 407 392 361 373 c 1,42,43
 397 360 397 360 415 329 c 128,-1,44
 433 298 433 298 433 256 c 0,45,46
 433 232 433 232 423 182 c 0,47,48
 405 93 405 93 345 41.5 c 128,-1,49
 285 -10 285 -10 200 -10 c 0,50,0
 123 -10 123 -10 81.5 25 c 128,-1,1
EndSplineSet
Validated: 1
Substitution2: "'sups' Superscript lookup 1 subtable" uni00B3
Substitution2: "'aalt' Access All Alternates lookup 0 subtable" uni00B3
EndChar

StartChar: four
Encoding: 52 52 23
Width: 510
GlyphClass: 2
Flags: W
LayerCount: 2
Fore
SplineSet
438 138 m 1,0,-1
 361 138 l 1,1,-1
 332 0 l 1,2,-1
 257 0 l 1,3,-1
 287 138 l 1,4,-1
 22 138 l 1,5,-1
 37 206 l 1,6,-1
 354 707 l 1,7,-1
 435 707 l 1,8,-1
 117 206 l 1,9,-1
 301 206 l 1,10,-1
 342 398 l 1,11,-1
 417 398 l 1,12,-1
 376 206 l 1,13,-1
 453 206 l 1,14,-1
 438 138 l 1,0,-1
EndSplineSet
Validated: 1
EndChar

StartChar: five
Encoding: 53 53 24
Width: 494
GlyphClass: 2
Flags: W
LayerCount: 2
Fore
SplineSet
82 22 m 128,-1,1
 42 54 42 54 42 116 c 0,2,3
 42 140 42 140 48 167 c 1,4,-1
 118 167 l 1,5,6
 116 149 116 149 116 140 c 0,7,8
 116 57 116 57 205 57 c 0,9,10
 313 57 313 57 338 190 c 2,11,-1
 351 257 l 2,12,13
 356 281 356 281 356 306 c 0,14,15
 356 391 356 391 270 391 c 0,16,17
 232 391 232 391 202 372 c 128,-1,18
 172 353 172 353 156 319 c 1,19,-1
 90 319 l 1,20,-1
 172 707 l 1,21,-1
 510 707 l 1,22,-1
 496 638 l 1,23,-1
 226 638 l 1,24,-1
 178 413 l 1,25,26
 195 433 195 433 225.5 446 c 128,-1,27
 256 459 256 459 291 459 c 0,28,29
 362 459 362 459 398 423.5 c 128,-1,30
 434 388 434 388 434 323 c 0,31,32
 434 292 434 292 427 260 c 2,33,-1
 411 182 l 2,34,35
 392 89 392 89 336.5 39.5 c 128,-1,36
 281 -10 281 -10 196 -10 c 0,37,0
 122 -10 122 -10 82 22 c 128,-1,1
EndSplineSet
Validated: 1
EndChar

StartChar: six
Encoding: 54 54 25
Width: 505
GlyphClass: 2
Flags: W
LayerCount: 2
Fore
SplineSet
84 29 m 128,-1,1
 41 68 41 68 41 137 c 0,2,3
 41 153 41 153 43 170.5 c 128,-1,4
 45 188 45 188 53 224 c 0,5,6
 68 295 68 295 124 374 c 2,7,-1
 359 707 l 1,8,-1
 440 707 l 1,9,-1
 222 396 l 1,10,11
 235 405 235 405 256.5 411.5 c 128,-1,12
 278 418 278 418 301 418 c 0,13,14
 366 418 366 418 404.5 380 c 128,-1,15
 443 342 443 342 443 275 c 0,16,17
 443 258 443 258 439.5 237 c 128,-1,18
 436 216 436 216 430 188 c 0,19,20
 410 95 410 95 348.5 42.5 c 128,-1,21
 287 -10 287 -10 203 -10 c 0,22,0
 127 -10 127 -10 84 29 c 128,-1,1
304.5 90.5 m 128,-1,24
 342 125 342 125 354 185 c 0,25,26
 358 202 358 202 360 215 c 0,27,28
 366 242 366 242 367 256 c 0,29,30
 367 300 367 300 340.5 325 c 128,-1,31
 314 350 314 350 269 350 c 0,32,33
 216 350 216 350 178 316 c 128,-1,34
 140 282 140 282 128 222 c 0,35,36
 122 194 122 194 120 180 c 128,-1,37
 118 166 118 166 118 153 c 0,38,39
 118 108 118 108 143 82 c 128,-1,40
 168 56 168 56 213 56 c 0,41,23
 267 56 267 56 304.5 90.5 c 128,-1,24
EndSplineSet
Validated: 1
EndChar

StartChar: seven
Encoding: 55 55 26
Width: 441
GlyphClass: 2
Flags: W
LayerCount: 2
Fore
SplineSet
496 707 m 1,0,-1
 481 639 l 1,1,-1
 115 0 l 1,2,-1
 40 0 l 1,3,-1
 409 639 l 1,4,-1
 122 639 l 1,5,-1
 136 707 l 1,6,-1
 496 707 l 1,0,-1
EndSplineSet
Validated: 1
EndChar

StartChar: eight
Encoding: 56 56 27
Width: 524
GlyphClass: 2
Flags: W
LayerCount: 2
Fore
SplineSet
92.5 30.5 m 128,-1,1
 48 71 48 71 48 139 c 0,2,3
 48 159 48 159 57 209 c 0,4,5
 67 264 67 264 103 307.5 c 128,-1,6
 139 351 139 351 190 373 c 1,7,8
 133 405 133 405 133 481 c 0,9,10
 133 500 133 500 136 514.5 c 128,-1,11
 139 529 139 529 141 541 c 0,12,13
 155 618 155 618 212.5 667.5 c 128,-1,14
 270 717 270 717 351 717 c 0,15,16
 423 717 423 717 464 678 c 128,-1,17
 505 639 505 639 505 575 c 0,18,19
 505 558 505 558 502 540 c 2,20,-1
 498 518 l 2,21,22
 489 467 489 467 457 428.5 c 128,-1,23
 425 390 425 390 382 372 c 1,24,25
 417 355 417 355 434 323.5 c 128,-1,26
 451 292 451 292 451 251 c 0,27,28
 451 237 451 237 448 221 c 128,-1,29
 445 205 445 205 440 183 c 0,30,31
 420 94 420 94 358.5 42 c 128,-1,32
 297 -10 297 -10 212 -10 c 0,33,0
 137 -10 137 -10 92.5 30.5 c 128,-1,1
379 436 m 128,-1,35
 414 468 414 468 423 518 c 2,36,-1
 427 541 l 2,37,38
 430 555 430 555 430 567 c 0,39,40
 430 605 430 605 406.5 627.5 c 128,-1,41
 383 650 383 650 342 650 c 0,42,43
 295 650 295 650 259 619 c 128,-1,44
 223 588 223 588 215 540 c 0,45,46
 208 500 208 500 208 489 c 0,47,48
 208 450 208 450 231.5 427 c 128,-1,49
 255 404 255 404 295 404 c 0,50,34
 344 404 344 404 379 436 c 128,-1,35
313.5 91 m 128,-1,52
 352 126 352 126 366 184 c 0,53,54
 371 206 371 206 373 217.5 c 128,-1,55
 375 229 375 229 375 242 c 0,56,57
 375 286 375 286 350 312 c 128,-1,58
 325 338 325 338 278 338 c 0,59,60
 224 338 224 338 184 303 c 128,-1,61
 144 268 144 268 132 211 c 0,62,63
 123 169 123 169 123 155 c 0,64,65
 123 110 123 110 149 83 c 128,-1,66
 175 56 175 56 221 56 c 0,67,51
 275 56 275 56 313.5 91 c 128,-1,52
EndSplineSet
Validated: 1
EndChar

StartChar: nine
Encoding: 57 57 28
Width: 505
GlyphClass: 2
Flags: W
LayerCount: 2
Fore
SplineSet
324 310 m 1,0,1
 310 301 310 301 287.5 295 c 128,-1,2
 265 289 265 289 243 289 c 0,3,4
 177 289 177 289 139.5 327.5 c 128,-1,5
 102 366 102 366 102 433 c 0,6,7
 102 449 102 449 105 465 c 128,-1,8
 108 481 108 481 111 497 c 128,-1,9
 114 513 114 513 116 521 c 0,10,11
 134 614 134 614 195 665.5 c 128,-1,12
 256 717 256 717 340 717 c 0,13,14
 416 717 416 717 460.5 677 c 128,-1,15
 505 637 505 637 505 567 c 0,16,17
 505 554 505 554 502 534 c 128,-1,18
 499 514 499 514 493 481 c 0,19,20
 486 443 486 443 468.5 408.5 c 128,-1,21
 451 374 451 374 422 333 c 2,22,-1
 187 0 l 1,23,-1
 105 0 l 1,24,-1
 324 310 l 1,0,1
368 390.5 m 128,-1,26
 407 425 407 425 418 483 c 0,27,28
 429 539 429 539 429 556 c 0,29,30
 429 600 429 600 403.5 625 c 128,-1,31
 378 650 378 650 333 650 c 0,32,33
 280 650 280 650 241.5 615.5 c 128,-1,34
 203 581 203 581 190 520 c 0,35,36
 179 467 179 467 179 450 c 0,37,38
 179 406 179 406 204 381 c 128,-1,39
 229 356 229 356 274 356 c 0,40,25
 329 356 329 356 368 390.5 c 128,-1,26
EndSplineSet
Validated: 1
EndChar

StartChar: colon
Encoding: 58 58 29
Width: 198
GlyphClass: 2
Flags: W
LayerCount: 2
Fore
SplineSet
18 94 m 1,0,-1
 110 94 l 1,1,-1
 89 0 l 1,2,-1
 -1 0 l 1,3,-1
 18 94 l 1,0,-1
92 440 m 1,4,-1
 183 440 l 1,5,-1
 163 346 l 1,6,-1
 73 346 l 1,7,-1
 92 440 l 1,4,-1
EndSplineSet
Validated: 1
EndChar

StartChar: semicolon
Encoding: 59 59 30
Width: 199
GlyphClass: 2
Flags: W
LayerCount: 2
Fore
SplineSet
42 95 m 1,0,-1
 110 95 l 1,1,-1
 74 -77 l 1,2,-1
 -10 -140 l 1,3,-1
 42 95 l 1,0,-1
92 440 m 1,4,-1
 183 440 l 1,5,-1
 163 346 l 1,6,-1
 73 346 l 1,7,-1
 92 440 l 1,4,-1
EndSplineSet
Validated: 1
EndChar

StartChar: less
Encoding: 60 60 31
Width: 524
GlyphClass: 2
Flags: W
LayerCount: 2
Fore
SplineSet
45 253 m 1,0,-1
 45 313 l 1,1,-1
 453 479 l 1,2,-1
 453 407 l 1,3,-1
 140 283 l 1,4,-1
 453 159 l 1,5,-1
 453 86 l 1,6,-1
 45 253 l 1,0,-1
EndSplineSet
Validated: 1
EndChar

StartChar: equal
Encoding: 61 61 32
Width: 524
GlyphClass: 2
Flags: W
LayerCount: 2
Fore
SplineSet
62 415 m 1,0,-1
 470 415 l 1,1,-1
 470 346 l 1,2,-1
 62 346 l 1,3,-1
 62 415 l 1,0,-1
62 218 m 1,4,-1
 470 218 l 1,5,-1
 470 151 l 1,6,-1
 62 151 l 1,7,-1
 62 218 l 1,4,-1
EndSplineSet
Validated: 1
EndChar

StartChar: greater
Encoding: 62 62 33
Width: 524
GlyphClass: 2
Flags: W
LayerCount: 2
Fore
SplineSet
81 159 m 1,0,-1
 393 283 l 1,1,-1
 81 407 l 1,2,-1
 81 479 l 1,3,-1
 488 313 l 1,4,-1
 488 253 l 1,5,-1
 81 86 l 1,6,-1
 81 159 l 1,0,-1
EndSplineSet
Validated: 1
EndChar

StartChar: question
Encoding: 63 63 34
Width: 440
GlyphClass: 2
Flags: W
LayerCount: 2
Fore
SplineSet
173 243 m 2,0,1
 181 280 181 280 193 302.5 c 128,-1,2
 205 325 205 325 236 357 c 2,3,-1
 306 432 l 2,4,5
 342 470 342 470 357 493.5 c 128,-1,6
 372 517 372 517 378 546 c 0,7,8
 381 561 381 561 381 574 c 0,9,10
 381 610 381 610 359.5 629.5 c 128,-1,11
 338 649 338 649 297 649 c 0,12,13
 198 649 198 649 172 538 c 1,14,-1
 97 538 l 1,15,16
 117 625 117 625 172.5 671 c 128,-1,17
 228 717 228 717 313 717 c 0,18,19
 382 717 382 717 419.5 682 c 128,-1,20
 457 647 457 647 457 588 c 0,21,22
 457 565 457 565 453 546 c 0,23,24
 446 509 446 509 427 478 c 128,-1,25
 408 447 408 447 371 409 c 2,26,-1
 295 327 l 2,27,28
 272 303 272 303 263 285.5 c 128,-1,29
 254 268 254 268 248 242 c 2,30,-1
 234 182 l 1,31,-1
 160 182 l 1,32,-1
 173 243 l 2,0,1
133 95 m 1,33,-1
 224 95 l 1,34,-1
 204 0 l 1,35,-1
 113 0 l 1,36,-1
 133 95 l 1,33,-1
EndSplineSet
Validated: 1
EndChar

StartChar: at
Encoding: 64 64 35
Width: 892
GlyphClass: 2
Flags: W
LayerCount: 2
Fore
SplineSet
204 -94.5 m 128,-1,1
 130 -58 130 -58 89.5 9 c 128,-1,2
 49 76 49 76 49 165 c 0,3,4
 49 210 49 210 59 255 c 2,5,-1
 75 325 l 2,6,7
 101 440 101 440 160.5 525.5 c 128,-1,8
 220 611 220 611 313.5 659 c 128,-1,9
 407 707 407 707 525 707 c 0,10,11
 623 707 623 707 698 670 c 128,-1,12
 773 633 773 633 814.5 565.5 c 128,-1,13
 856 498 856 498 856 410 c 0,14,15
 856 370 856 370 847 327 c 2,16,-1
 833 258 l 2,17,18
 811 158 811 158 758 107.5 c 128,-1,19
 705 57 705 57 636 57 c 0,20,21
 594 57 594 57 567.5 76 c 128,-1,22
 541 95 541 95 532 130 c 1,23,24
 485 57 485 57 394 57 c 0,25,26
 331 57 331 57 298.5 91 c 128,-1,27
 266 125 266 125 266 185 c 0,28,29
 266 212 266 212 272 243 c 2,30,-1
 290 325 l 2,31,32
 330 511 330 511 478 511 c 0,33,34
 517 511 517 511 543.5 496 c 128,-1,35
 570 481 570 481 583 455 c 1,36,-1
 592 501 l 1,37,-1
 659 501 l 1,38,-1
 596 205 l 2,39,40
 593 189 593 189 593 175 c 0,41,42
 593 145 593 145 608.5 130.5 c 128,-1,43
 624 116 624 116 649 116 c 0,44,45
 688 116 688 116 714.5 148.5 c 128,-1,46
 741 181 741 181 759 257 c 2,47,-1
 774 326 l 2,48,49
 783 369 783 369 783 407 c 0,50,51
 783 517 783 517 715 579 c 128,-1,52
 647 641 647 641 524 641 c 0,53,54
 369 641 369 641 273.5 557.5 c 128,-1,55
 178 474 178 474 147 327 c 2,56,-1
 132 254 l 2,57,58
 123 211 123 211 123 172 c 0,59,60
 123 63 123 63 191 -1 c 128,-1,61
 259 -65 259 -65 381 -65 c 0,62,63
 449 -65 449 -65 503 -52 c 128,-1,64
 557 -39 557 -39 613 -12 c 1,65,-1
 633 -71 l 1,66,67
 571 -103 571 -103 510 -117 c 128,-1,68
 449 -131 449 -131 375 -131 c 0,69,0
 278 -131 278 -131 204 -94.5 c 128,-1,1
535 243 m 2,71,-1
 553 327 l 2,72,73
 558 349 558 349 558 373 c 0,74,75
 558 452 558 452 483 452 c 0,76,77
 386 452 386 452 359 324 c 2,78,-1
 343 248 l 2,79,80
 337 219 337 219 337 196 c 0,81,82
 337 117 337 117 413 117 c 0,83,70
 507 117 507 117 535 243 c 2,71,-1
EndSplineSet
Validated: 1
EndChar

StartChar: A
Encoding: 65 65 36
Width: 583
GlyphClass: 2
Flags: W
AnchorPoint: "Anchor-0" 370 692 basechar 0
LayerCount: 2
Fore
SplineSet
423 170 m 1,0,-1
 123 170 l 1,1,-1
 28 0 l 1,2,-1
 -51 0 l 1,3,-1
 355 707 l 1,4,-1
 419 707 l 1,5,-1
 524 0 l 1,6,-1
 446 0 l 1,7,-1
 423 170 l 1,0,-1
415 233 m 1,8,-1
 365 602 l 1,9,-1
 159 233 l 1,10,-1
 415 233 l 1,8,-1
EndSplineSet
Validated: 1
Substitution2: "Single Substitution lookup 6 subtable" ordfeminine
Substitution2: "'aalt' Access All Alternates lookup 0 subtable" ordfeminine
EndChar

StartChar: B
Encoding: 66 66 37
Width: 631
GlyphClass: 2
Flags: W
LayerCount: 2
Fore
SplineSet
530 315 m 128,-1,1
 553 281 553 281 553 233 c 0,2,3
 553 161 553 161 519 108.5 c 128,-1,4
 485 56 485 56 426 28 c 128,-1,5
 367 0 367 0 292 0 c 2,6,-1
 27 0 l 1,7,-1
 177 707 l 1,8,-1
 431 707 l 2,9,10
 518 707 518 707 564.5 668.5 c 128,-1,11
 611 630 611 630 611 560 c 0,12,13
 611 492 611 492 570 437.5 c 128,-1,14
 529 383 529 383 463 364 c 1,15,0
 507 349 507 349 530 315 c 128,-1,1
238 640 m 1,16,-1
 185 394 l 1,17,-1
 350 394 l 2,18,19
 430 394 430 394 482.5 434.5 c 128,-1,20
 535 475 535 475 535 547 c 0,21,22
 535 640 535 640 417 640 c 2,23,-1
 238 640 l 1,16,-1
427 110.5 m 128,-1,25
 477 154 477 154 477 228 c 0,26,27
 477 277 477 277 446.5 302.5 c 128,-1,28
 416 328 416 328 356 328 c 2,29,-1
 171 328 l 1,30,-1
 116 67 l 1,31,-1
 293 67 l 2,32,24
 377 67 377 67 427 110.5 c 128,-1,25
EndSplineSet
Validated: 1
EndChar

StartChar: C
Encoding: 67 67 38
Width: 624
GlyphClass: 2
Flags: W
LayerCount: 2
Fore
SplineSet
116 37.5 m 128,-1,1
 59 83 59 83 59 179 c 0,2,3
 59 216 59 216 69 262 c 2,4,-1
 108 445 l 2,5,6
 138 587 138 587 215 651.5 c 128,-1,7
 292 716 292 716 404 716 c 0,8,9
 503 716 503 716 556.5 666.5 c 128,-1,10
 610 617 610 617 610 530 c 0,11,12
 610 514 610 514 607 497 c 1,13,-1
 532 497 l 1,14,15
 534 506 534 506 535 522 c 0,16,17
 535 582 535 582 499.5 615 c 128,-1,18
 464 648 464 648 395 648 c 0,19,20
 311 648 311 648 258.5 600 c 128,-1,21
 206 552 206 552 182 442 c 2,22,-1
 142 258 l 2,23,24
 134 219 134 219 134 193 c 0,25,26
 134 125 134 125 173 92.5 c 128,-1,27
 212 60 212 60 282 60 c 0,28,29
 358 60 358 60 406 99 c 128,-1,30
 454 138 454 138 471 208 c 2,31,-1
 472 212 l 1,32,-1
 545 212 l 1,33,-1
 544 208 l 2,34,35
 518 108 518 108 447 50 c 128,-1,36
 376 -8 376 -8 268 -8 c 0,37,0
 173 -8 173 -8 116 37.5 c 128,-1,1
EndSplineSet
Validated: 1
EndChar

StartChar: D
Encoding: 68 68 39
Width: 634
GlyphClass: 2
Flags: W
LayerCount: 2
Fore
SplineSet
177 707 m 1,0,-1
 417 707 l 2,1,2
 509 707 509 707 562 663.5 c 128,-1,3
 615 620 615 620 615 525 c 0,4,5
 615 484 615 484 605 437 c 2,6,-1
 569 269 l 2,7,8
 539 129 539 129 459.5 64.5 c 128,-1,9
 380 0 380 0 268 0 c 2,10,-1
 27 0 l 1,11,-1
 177 707 l 1,0,-1
283 68 m 2,12,13
 452 68 452 68 494 265 c 2,14,-1
 529 434 l 2,15,16
 539 485 539 485 540 515 c 0,17,18
 540 580 540 580 506 609.5 c 128,-1,19
 472 639 472 639 408 639 c 2,20,-1
 238 639 l 1,21,-1
 117 68 l 1,22,-1
 283 68 l 2,12,13
EndSplineSet
Validated: 1
EndChar

StartChar: E
Encoding: 69 69 40
Width: 569
GlyphClass: 2
Flags: W
AnchorPoint: "Anchor-0" 382 707 basechar 0
LayerCount: 2
Fore
SplineSet
238 639 m 1,0,-1
 185 393 l 1,1,-1
 488 393 l 1,2,-1
 474 326 l 1,3,-1
 171 326 l 1,4,-1
 116 68 l 1,5,-1
 471 68 l 1,6,-1
 456 0 l 1,7,-1
 27 0 l 1,8,-1
 177 707 l 1,9,-1
 606 707 l 1,10,-1
 592 639 l 1,11,-1
 238 639 l 1,0,-1
EndSplineSet
Validated: 1
EndChar

StartChar: F
Encoding: 70 70 41
Width: 551
GlyphClass: 2
Flags: W
LayerCount: 2
Fore
SplineSet
238 639 m 1,0,-1
 184 391 l 1,1,-1
 487 391 l 1,2,-1
 473 324 l 1,3,-1
 170 324 l 1,4,-1
 101 0 l 1,5,-1
 27 0 l 1,6,-1
 177 707 l 1,7,-1
 606 707 l 1,8,-1
 592 639 l 1,9,-1
 238 639 l 1,0,-1
EndSplineSet
Validated: 1
EndChar

StartChar: G
Encoding: 71 71 42
Width: 624
GlyphClass: 2
Flags: W
LayerCount: 2
Fore
SplineSet
116 37.5 m 128,-1,1
 59 83 59 83 59 180 c 0,2,3
 59 216 59 216 69 262 c 2,4,-1
 108 445 l 2,5,6
 138 586 138 586 215 651 c 128,-1,7
 292 716 292 716 403 716 c 0,8,9
 502 716 502 716 555 666.5 c 128,-1,10
 608 617 608 617 608 532 c 0,11,12
 608 527 608 527 607 518.5 c 128,-1,13
 606 510 606 510 606 498 c 1,14,-1
 531 498 l 1,15,-1
 532 525 l 2,16,17
 532 584 532 584 499 616 c 128,-1,18
 466 648 466 648 397 648 c 0,19,20
 312 648 312 648 259 599.5 c 128,-1,21
 206 551 206 551 182 442 c 2,22,-1
 142 258 l 2,23,24
 134 217 134 217 134 188 c 0,25,26
 134 60 134 60 275 60 c 0,27,28
 357 60 357 60 407.5 102.5 c 128,-1,29
 458 145 458 145 477 238 c 2,30,-1
 490 299 l 1,31,-1
 322 299 l 1,32,-1
 336 364 l 1,33,-1
 579 364 l 1,34,-1
 555 251 l 2,35,36
 501 -8 501 -8 269 -8 c 0,37,0
 173 -8 173 -8 116 37.5 c 128,-1,1
EndSplineSet
Validated: 1
EndChar

StartChar: H
Encoding: 72 72 43
Width: 644
GlyphClass: 2
Flags: W
LayerCount: 2
Fore
SplineSet
657 707 m 1,0,-1
 507 0 l 1,1,-1
 432 0 l 1,2,-1
 502 328 l 1,3,-1
 171 328 l 1,4,-1
 101 0 l 1,5,-1
 27 0 l 1,6,-1
 177 707 l 1,7,-1
 252 707 l 1,8,-1
 185 395 l 1,9,-1
 516 395 l 1,10,-1
 583 707 l 1,11,-1
 657 707 l 1,0,-1
EndSplineSet
Validated: 1
EndChar

StartChar: I
Encoding: 73 73 44
Width: 254
GlyphClass: 2
Flags: W
AnchorPoint: "Anchor-0" 222 707 basechar 0
LayerCount: 2
Fore
SplineSet
185 707 m 1,0,-1
 260 707 l 1,1,-1
 110 0 l 1,2,-1
 35 0 l 1,3,-1
 185 707 l 1,0,-1
EndSplineSet
Validated: 1
EndChar

StartChar: J
Encoding: 74 74 45
Width: 321
GlyphClass: 2
Flags: W
LayerCount: 2
Fore
SplineSet
-7 68 m 1,0,-1
 50 68 l 2,1,2
 85 68 85 68 104.5 86 c 128,-1,3
 124 104 124 104 132 145 c 2,4,-1
 251 707 l 1,5,-1
 326 707 l 1,6,-1
 205 136 l 2,7,8
 192 69 192 69 151.5 34.5 c 128,-1,9
 111 0 111 0 47 0 c 2,10,-1
 -23 0 l 1,11,-1
 -7 68 l 1,0,-1
EndSplineSet
Validated: 1
EndChar

StartChar: K
Encoding: 75 75 46
Width: 606
GlyphClass: 2
Flags: W
LayerCount: 2
Fore
SplineSet
381 427 m 1,0,-1
 543 0 l 1,1,-1
 463 0 l 1,2,-1
 325 373 l 1,3,-1
 143 195 l 1,4,-1
 101 0 l 1,5,-1
 27 0 l 1,6,-1
 177 707 l 1,7,-1
 252 707 l 1,8,-1
 166 304 l 1,9,-1
 577 707 l 1,10,-1
 668 707 l 1,11,-1
 381 427 l 1,0,-1
EndSplineSet
Validated: 1
EndChar

StartChar: L
Encoding: 76 76 47
Width: 542
GlyphClass: 2
Flags: W
LayerCount: 2
Fore
SplineSet
177 707 m 1,0,-1
 252 707 l 1,1,-1
 117 68 l 1,2,-1
 469 68 l 1,3,-1
 455 0 l 1,4,-1
 28 0 l 1,5,-1
 177 707 l 1,0,-1
EndSplineSet
Validated: 1
EndChar

StartChar: M
Encoding: 77 77 48
Width: 770
GlyphClass: 2
Flags: W
LayerCount: 2
Fore
SplineSet
783 707 m 1,0,-1
 633 0 l 1,1,-1
 558 0 l 1,2,-1
 675 548 l 1,3,-1
 391 141 l 1,4,-1
 333 141 l 1,5,-1
 218 550 l 1,6,-1
 101 0 l 1,7,-1
 27 0 l 1,8,-1
 177 707 l 1,9,-1
 252 707 l 1,10,-1
 380 230 l 1,11,-1
 709 707 l 1,12,-1
 783 707 l 1,0,-1
EndSplineSet
Validated: 1
EndChar

StartChar: N
Encoding: 78 78 49
Width: 678
GlyphClass: 2
Flags: W
AnchorPoint: "Anchor-0" 424 707 basechar 0
LayerCount: 2
Fore
SplineSet
692 707 m 1,0,-1
 542 0 l 1,1,-1
 467 0 l 1,2,-1
 222 569 l 1,3,-1
 101 0 l 1,4,-1
 27 0 l 1,5,-1
 177 707 l 1,6,-1
 252 707 l 1,7,-1
 497 139 l 1,8,-1
 618 707 l 1,9,-1
 692 707 l 1,0,-1
EndSplineSet
Validated: 1
EndChar

StartChar: O
Encoding: 79 79 50
Width: 623
GlyphClass: 2
Flags: W
AnchorPoint: "Anchor-0" 396 707 basechar 0
LayerCount: 2
Fore
SplineSet
115.5 37.5 m 128,-1,1
 59 83 59 83 59 179 c 0,2,3
 59 216 59 216 69 262 c 2,4,-1
 108 445 l 2,5,6
 165 715 165 715 398 716 c 0,7,8
 492 716 492 716 548.5 670.5 c 128,-1,9
 605 625 605 625 605 528 c 0,10,11
 605 491 605 491 596 445 c 2,12,-1
 557 262 l 2,13,14
 500 -8 500 -8 268 -8 c 0,15,0
 172 -8 172 -8 115.5 37.5 c 128,-1,1
408.5 107.5 m 128,-1,17
 459 155 459 155 481 258 c 2,18,-1
 521 442 l 2,19,20
 529 479 529 479 529 515 c 0,21,22
 529 648 529 648 389 648 c 0,23,24
 306 648 306 648 256 600 c 128,-1,25
 206 552 206 552 182 442 c 2,26,-1
 142 258 l 2,27,28
 134 219 134 219 134 190 c 0,29,30
 134 60 134 60 279 60 c 0,31,16
 358 60 358 60 408.5 107.5 c 128,-1,17
EndSplineSet
Validated: 1
Substitution2: "Single Substitution lookup 6 subtable" ordmasculine
Substitution2: "'aalt' Access All Alternates lookup 0 subtable" ordmasculine
EndChar

StartChar: P
Encoding: 80 80 51
Width: 592
GlyphClass: 2
Flags: W
LayerCount: 2
Fore
SplineSet
564.5 658.5 m 128,-1,1
 613 616 613 616 613 539 c 0,2,3
 613 464 613 464 579 407 c 128,-1,4
 545 350 545 350 482.5 318.5 c 128,-1,5
 420 287 420 287 340 287 c 2,6,-1
 163 287 l 1,7,-1
 101 0 l 1,8,-1
 27 0 l 1,9,-1
 176 701 l 1,10,-1
 429 701 l 2,11,0
 516 701 516 701 564.5 658.5 c 128,-1,1
486 398 m 128,-1,13
 538 443 538 443 538 528 c 0,14,15
 538 633 538 633 410 634 c 2,16,-1
 237 634 l 1,17,-1
 177 353 l 1,18,-1
 347 353 l 2,19,12
 434 353 434 353 486 398 c 128,-1,13
EndSplineSet
Validated: 1
EndChar

StartChar: Q
Encoding: 81 81 52
Width: 623
GlyphClass: 2
Flags: W
AnchorPoint: "Anchor-0" 396 707 basechar 0
LayerCount: 2
Fore
SplineSet
549 670.5 m 128,-1,1
 605 625 605 625 605 528 c 0,2,3
 605 491 605 491 596 445 c 2,4,-1
 557 262 l 2,5,6
 518 80 518 80 399 20 c 1,7,-1
 446 -122 l 1,8,-1
 381 -155 l 1,9,-1
 331 -3 l 1,10,11
 297 -8 297 -8 268 -8 c 0,12,13
 172 -8 172 -8 115.5 37.5 c 128,-1,14
 59 83 59 83 59 179 c 0,15,16
 59 216 59 216 69 262 c 2,17,-1
 108 445 l 2,18,19
 165 715 165 715 398 716 c 0,20,0
 493 716 493 716 549 670.5 c 128,-1,1
529 515 m 0,22,23
 529 648 529 648 389 648 c 0,24,25
 306 648 306 648 256 600 c 128,-1,26
 206 552 206 552 182 442 c 2,27,-1
 142 258 l 2,28,29
 134 219 134 219 134 190 c 0,30,31
 134 60 134 60 279 60 c 0,32,33
 359 60 359 60 409 107.5 c 128,-1,34
 459 155 459 155 481 258 c 2,35,-1
 521 442 l 2,36,21
 529 479 529 479 529 515 c 0,22,23
EndSplineSet
Validated: 1
EndChar

StartChar: R
Encoding: 82 82 53
Width: 613
GlyphClass: 2
Flags: W
LayerCount: 2
Fore
SplineSet
562.5 400.5 m 128,-1,1
 509 337 509 337 416 317 c 1,2,-1
 517 0 l 1,3,-1
 432 0 l 1,4,-1
 338 310 l 1,5,-1
 168 310 l 1,6,-1
 101 0 l 1,7,-1
 27 0 l 1,8,-1
 177 707 l 1,9,-1
 437 707 l 2,10,11
 521 707 521 707 568.5 667 c 128,-1,12
 616 627 616 627 616 553 c 0,13,0
 616 464 616 464 562.5 400.5 c 128,-1,1
489 419 m 128,-1,15
 540 463 540 463 540 540 c 0,16,17
 540 589 540 589 509 614 c 128,-1,18
 478 639 478 639 420 639 c 2,19,-1
 238 639 l 1,20,-1
 181 375 l 1,21,-1
 358 375 l 2,22,14
 438 375 438 375 489 419 c 128,-1,15
EndSplineSet
Validated: 1
EndChar

StartChar: S
Encoding: 83 83 54
Width: 563
GlyphClass: 2
Flags: W
AnchorPoint: "Anchor-0" 349 707 basechar 0
LayerCount: 2
Fore
SplineSet
73.5 38 m 128,-1,1
 19 82 19 82 19 165 c 0,2,3
 19 188 19 188 22 200 c 1,4,-1
 94 200 l 1,5,6
 93 192 93 192 93 176 c 0,7,8
 93 59 93 59 233 59 c 0,9,10
 327 59 327 59 377.5 102 c 128,-1,11
 428 145 428 145 428 220 c 0,12,13
 428 263 428 263 402 287 c 128,-1,14
 376 311 376 311 322 322 c 2,15,-1
 242 337 l 2,16,17
 98 365 98 365 97 483 c 0,18,19
 97 555 97 555 130.5 607 c 128,-1,20
 164 659 164 659 224.5 687.5 c 128,-1,21
 285 716 285 716 362 716 c 0,22,23
 450 716 450 716 503.5 673.5 c 128,-1,24
 557 631 557 631 557 546 c 0,25,26
 557 529 557 529 556 519 c 1,27,-1
 482 519 l 1,28,29
 484 537 484 537 484 545 c 0,30,31
 484 651 484 651 357 651 c 0,32,33
 271 651 271 651 221.5 608 c 128,-1,34
 172 565 172 565 172 498 c 0,35,36
 172 458 172 458 197 434.5 c 128,-1,37
 222 411 222 411 273 401 c 2,38,-1
 355 386 l 2,39,40
 428 373 428 373 466 336.5 c 128,-1,41
 504 300 504 300 504 236 c 0,42,43
 504 121 504 121 430 57.5 c 128,-1,44
 356 -6 356 -6 227 -6 c 0,45,0
 128 -6 128 -6 73.5 38 c 128,-1,1
EndSplineSet
Validated: 1
EndChar

StartChar: T
Encoding: 84 84 55
Width: 494
GlyphClass: 2
Flags: W
LayerCount: 2
Fore
SplineSet
567 639 m 1,0,-1
 365 639 l 1,1,-1
 229 0 l 1,2,-1
 156 0 l 1,3,-1
 291 639 l 1,4,-1
 89 639 l 1,5,-1
 103 707 l 1,6,-1
 582 707 l 1,7,-1
 567 639 l 1,0,-1
EndSplineSet
Validated: 1
EndChar

StartChar: U
Encoding: 85 85 56
Width: 650
GlyphClass: 2
Flags: W
AnchorPoint: "Anchor-0" 415 707 basechar 0
LayerCount: 2
Fore
SplineSet
129.5 45 m 128,-1,1
 71 96 71 96 71 181 c 0,2,3
 71 207 71 207 77 234 c 2,4,-1
 177 707 l 1,5,-1
 253 707 l 1,6,-1
 153 237 l 2,7,8
 148 209 148 209 147 190 c 0,9,10
 147 130 147 130 185 95 c 128,-1,11
 223 60 223 60 290 60 c 0,12,13
 367 60 367 60 419 107 c 128,-1,14
 471 154 471 154 488 237 c 2,15,-1
 589 707 l 1,16,-1
 664 707 l 1,17,-1
 562 230 l 2,18,19
 539 122 539 122 464.5 58 c 128,-1,20
 390 -6 390 -6 283 -6 c 0,21,0
 188 -6 188 -6 129.5 45 c 128,-1,1
EndSplineSet
Validated: 1
EndChar

StartChar: V
Encoding: 86 86 57
Width: 528
GlyphClass: 2
Flags: W
LayerCount: 2
Fore
SplineSet
99 707 m 1,0,-1
 176 707 l 1,1,-1
 234 121 l 1,2,-1
 541 707 l 1,3,-1
 620 707 l 1,4,-1
 239 0 l 1,5,-1
 178 0 l 1,6,-1
 99 707 l 1,0,-1
EndSplineSet
Validated: 1
EndChar

StartChar: W
Encoding: 87 87 58
Width: 807
GlyphClass: 2
Flags: W
LayerCount: 2
Fore
SplineSet
899 707 m 1,0,-1
 572 0 l 1,1,-1
 506 0 l 1,2,-1
 479 613 l 1,3,-1
 196 0 l 1,4,-1
 129 0 l 1,5,-1
 99 707 l 1,6,-1
 171 707 l 1,7,-1
 190 121 l 1,8,-1
 453 707 l 1,9,-1
 547 707 l 1,10,-1
 566 121 l 1,11,-1
 830 707 l 1,12,-1
 899 707 l 1,0,-1
EndSplineSet
Validated: 1
EndChar

StartChar: X
Encoding: 88 88 59
Width: 571
GlyphClass: 2
Flags: W
LayerCount: 2
Fore
SplineSet
265 370 m 1,0,-1
 118 707 l 1,1,-1
 206 707 l 1,2,-1
 322 428 l 1,3,-1
 555 707 l 1,4,-1
 642 707 l 1,5,-1
 352 369 l 1,6,-1
 512 0 l 1,7,-1
 423 0 l 1,8,-1
 296 310 l 1,9,-1
 37 0 l 1,10,-1
 -51 0 l 1,11,-1
 265 370 l 1,0,-1
EndSplineSet
Validated: 1
EndChar

StartChar: Y
Encoding: 89 89 60
Width: 503
GlyphClass: 2
Flags: W
AnchorPoint: "Anchor-0" 340 707 basechar 0
LayerCount: 2
Fore
SplineSet
297 295 m 1,0,-1
 233 0 l 1,1,-1
 160 0 l 1,2,-1
 222 297 l 1,3,-1
 99 707 l 1,4,-1
 179 707 l 1,5,-1
 274 366 l 1,6,-1
 514 707 l 1,7,-1
 595 707 l 1,8,-1
 297 295 l 1,0,-1
EndSplineSet
Validated: 1
EndChar

StartChar: Z
Encoding: 90 90 61
Width: 533
GlyphClass: 2
Flags: W
AnchorPoint: "Anchor-0" 349 707 basechar 0
LayerCount: 2
Fore
SplineSet
569 639 m 1,0,-1
 86 68 l 1,1,-1
 452 68 l 1,2,-1
 437 0 l 1,3,-1
 -14 0 l 1,4,-1
 0 68 l 1,5,-1
 482 639 l 1,6,-1
 136 639 l 1,7,-1
 150 707 l 1,8,-1
 584 707 l 1,9,-1
 569 639 l 1,0,-1
EndSplineSet
Validated: 1
EndChar

StartChar: bracketleft
Encoding: 91 91 62
Width: 302
GlyphClass: 2
Flags: W
LayerCount: 2
Fore
SplineSet
187 758 m 1,0,-1
 347 758 l 1,1,-1
 333 690 l 1,2,-1
 249 690 l 1,3,-1
 98 -18 l 1,4,-1
 182 -18 l 1,5,-1
 168 -86 l 1,6,-1
 8 -86 l 1,7,-1
 187 758 l 1,0,-1
EndSplineSet
Validated: 1
EndChar

StartChar: backslash
Encoding: 92 92 63
Width: 401
GlyphClass: 2
Flags: W
LayerCount: 2
Fore
SplineSet
156 707 m 1,0,-1
 217 707 l 1,1,-1
 284 -10 l 1,2,-1
 222 -10 l 1,3,-1
 156 707 l 1,0,-1
EndSplineSet
Validated: 1
EndChar

StartChar: bracketright
Encoding: 93 93 64
Width: 302
GlyphClass: 2
Flags: W
LayerCount: 2
Fore
SplineSet
2 -18 m 1,0,-1
 86 -18 l 1,1,-1
 237 690 l 1,2,-1
 153 690 l 1,3,-1
 166 758 l 1,4,-1
 326 758 l 1,5,-1
 146 -86 l 1,6,-1
 -13 -86 l 1,7,-1
 2 -18 l 1,0,-1
EndSplineSet
Validated: 1
EndChar

StartChar: asciicircum
Encoding: 94 94 65
Width: 524
GlyphClass: 2
Flags: W
LayerCount: 2
Fore
SplineSet
239 707 m 1,0,-1
 300 707 l 1,1,-1
 476 292 l 1,2,-1
 416 292 l 1,3,-1
 269 641 l 1,4,-1
 123 292 l 1,5,-1
 61 292 l 1,6,-1
 239 707 l 1,0,-1
EndSplineSet
Validated: 1
EndChar

StartChar: underscore
Encoding: 95 95 66
Width: 467
GlyphClass: 2
Flags: W
LayerCount: 2
Fore
SplineSet
-67 -55 m 1,0,-1
 401 -55 l 1,1,-1
 391 -106 l 1,2,-1
 -78 -106 l 1,3,-1
 -67 -55 l 1,0,-1
EndSplineSet
Validated: 1
EndChar

StartChar: grave
Encoding: 96 96 67
Width: 498
GlyphClass: 2
Flags: W
LayerCount: 2
Fore
SplineSet
250 714 m 1,0,-1
 330 714 l 1,1,-1
 404 586 l 1,2,-1
 346 586 l 1,3,-1
 250 714 l 1,0,-1
EndSplineSet
Validated: 1
EndChar

StartChar: a
Encoding: 97 97 68
Width: 522
GlyphClass: 2
Flags: W
AnchorPoint: "Anchor-0" 301 519 basechar 0
LayerCount: 2
Fore
SplineSet
80.5 28.5 m 128,-1,1
 41 63 41 63 41 137 c 0,2,3
 41 166 41 166 49 207 c 2,4,-1
 72 313 l 2,5,6
 96 423 96 423 155 474 c 128,-1,7
 214 525 214 525 293 525 c 0,8,9
 339 525 339 525 370 505 c 128,-1,10
 401 485 401 485 416 446 c 1,11,-1
 431 519 l 1,12,-1
 501 519 l 1,13,-1
 390 0 l 1,14,-1
 322 0 l 1,15,-1
 337 70 l 1,16,17
 281 -6 281 -6 182 -6 c 0,18,0
 120 -6 120 -6 80.5 28.5 c 128,-1,1
310.5 99 m 128,-1,20
 351 142 351 142 366 212 c 2,21,-1
 385 303 l 2,22,23
 390 327 390 327 390 354 c 0,24,25
 390 405 390 405 365.5 434 c 128,-1,26
 341 463 341 463 291 463 c 0,27,28
 175 463 175 463 141 308 c 2,29,-1
 120 210 l 2,30,31
 114 184 114 184 114 153 c 0,32,33
 114 57 114 57 206 56 c 0,34,19
 270 56 270 56 310.5 99 c 128,-1,20
EndSplineSet
Validated: 1
Substitution2: "Single Substitution lookup 6 subtable" ordfeminine
Substitution2: "'aalt' Access All Alternates lookup 0 subtable" ordfeminine
EndChar

StartChar: b
Encoding: 98 98 69
Width: 522
GlyphClass: 2
Flags: W
LayerCount: 2
Fore
SplineSet
153.5 13 m 128,-1,1
 121 32 121 32 105 69 c 1,2,-1
 91 0 l 1,3,-1
 22 0 l 1,4,-1
 172 707 l 1,5,-1
 242 707 l 1,6,-1
 186 446 l 1,7,8
 243 526 243 526 334 526 c 0,9,10
 401 526 401 526 440.5 491 c 128,-1,11
 480 456 480 456 480 381 c 0,12,13
 480 348 480 348 473 313 c 2,14,-1
 451 206 l 2,15,16
 428 95 428 95 369.5 44.5 c 128,-1,17
 311 -6 311 -6 236 -6 c 0,18,0
 186 -6 186 -6 153.5 13 c 128,-1,1
325 91.5 m 128,-1,20
 362 127 362 127 381 211 c 2,21,-1
 402 309 l 2,22,23
 408 335 408 335 409 367 c 0,24,25
 409 463 409 463 313 463 c 0,26,27
 252 463 252 463 212 419.5 c 128,-1,28
 172 376 172 376 156 302 c 2,29,-1
 136 212 l 2,30,31
 131 184 131 184 131 165 c 0,32,33
 131 115 131 115 157.5 85.5 c 128,-1,34
 184 56 184 56 237 56 c 0,35,19
 288 56 288 56 325 91.5 c 128,-1,20
EndSplineSet
Validated: 1
EndChar

StartChar: c
Encoding: 99 99 70
Width: 516
GlyphClass: 2
Flags: W
LayerCount: 2
Fore
SplineSet
91 31 m 128,-1,1
 43 68 43 68 43 147 c 0,2,3
 43 178 43 178 50 213 c 2,4,-1
 72 313 l 2,5,6
 118 526 118 526 310 526 c 0,7,8
 391 526 391 526 433 487.5 c 128,-1,9
 475 449 475 449 475 374 c 0,10,11
 475 357 475 357 474 348 c 1,12,-1
 407 348 l 1,13,-1
 408 366 l 2,14,15
 408 415 408 415 382.5 439 c 128,-1,16
 357 463 357 463 306 463 c 0,17,18
 243 463 243 463 201 428.5 c 128,-1,19
 159 394 159 394 140 309 c 2,20,-1
 121 217 l 2,21,22
 114 185 114 185 114 158 c 0,23,24
 114 102 114 102 143.5 79 c 128,-1,25
 173 56 173 56 225 56 c 0,26,27
 286 56 286 56 322 86 c 128,-1,28
 358 116 358 116 368 171 c 1,29,-1
 434 171 l 1,30,31
 425 89 425 89 367.5 41.5 c 128,-1,32
 310 -6 310 -6 220 -6 c 0,33,0
 139 -6 139 -6 91 31 c 128,-1,1
EndSplineSet
Validated: 1
EndChar

StartChar: d
Encoding: 100 100 71
Width: 523
GlyphClass: 2
Flags: W
LayerCount: 2
Fore
SplineSet
80.5 28.5 m 128,-1,1
 41 63 41 63 41 137 c 0,2,3
 41 166 41 166 49 207 c 2,4,-1
 72 313 l 2,5,6
 96 423 96 423 154 474 c 128,-1,7
 212 525 212 525 290 525 c 0,8,9
 383 525 383 525 416 446 c 1,10,-1
 470 707 l 1,11,-1
 541 707 l 1,12,-1
 391 0 l 1,13,-1
 321 0 l 1,14,-1
 336 69 l 1,15,16
 281 -6 281 -6 182 -6 c 0,17,0
 120 -6 120 -6 80.5 28.5 c 128,-1,1
310.5 99 m 128,-1,19
 351 142 351 142 366 212 c 2,20,-1
 385 302 l 2,21,22
 390 326 390 326 390 354 c 0,23,24
 390 405 390 405 365.5 434 c 128,-1,25
 341 463 341 463 291 463 c 0,26,27
 176 463 176 463 141 308 c 2,28,-1
 120 211 l 2,29,30
 114 185 114 185 114 154 c 0,31,32
 114 57 114 57 207 56 c 0,33,18
 270 56 270 56 310.5 99 c 128,-1,19
EndSplineSet
Validated: 1
EndChar

StartChar: e
Encoding: 101 101 72
Width: 516
GlyphClass: 2
Flags: W
AnchorPoint: "Anchor-0" 307 519 basechar 0
LayerCount: 2
Fore
SplineSet
428 489 m 128,-1,1
 473 452 473 452 473 375 c 0,2,3
 473 346 473 346 465 305 c 2,4,-1
 453 246 l 1,5,-1
 128 246 l 1,6,-1
 122 214 l 2,7,8
 115 182 115 182 115 155 c 0,9,10
 115 101 115 101 144 78.5 c 128,-1,11
 173 56 173 56 224 56 c 0,12,13
 277 56 277 56 313 83 c 128,-1,14
 349 110 349 110 362 160 c 1,15,-1
 430 160 l 1,16,17
 414 80 414 80 358 37 c 128,-1,18
 302 -6 302 -6 215 -6 c 0,19,20
 137 -6 137 -6 90.5 32 c 128,-1,21
 44 70 44 70 44 150 c 0,22,23
 44 178 44 178 52 218 c 2,24,-1
 71 307 l 2,25,26
 95 420 95 420 157.5 473 c 128,-1,27
 220 526 220 526 308 526 c 0,28,0
 383 526 383 526 428 489 c 128,-1,1
403 370 m 0,30,31
 403 420 403 420 376.5 441.5 c 128,-1,32
 350 463 350 463 302 463 c 0,33,34
 243 463 243 463 201 428.5 c 128,-1,35
 159 394 159 394 141 309 c 2,36,-1
 139 298 l 1,37,-1
 393 298 l 1,38,-1
 397 316 l 2,39,29
 403 347 403 347 403 370 c 0,30,31
EndSplineSet
Validated: 1
EndChar

StartChar: f
Encoding: 102 102 73
Width: 335
GlyphClass: 2
Flags: W
LayerCount: 2
Fore
SplineSet
256 581 m 2,1,-1
 243 519 l 1,2,-1
 351 519 l 1,3,-1
 340 464 l 1,4,-1
 231 464 l 1,5,-1
 132 0 l 1,6,-1
 62 0 l 1,7,-1
 161 464 l 1,8,-1
 94 464 l 1,9,-1
 106 519 l 1,10,-1
 172 519 l 1,11,-1
 184 578 l 2,12,13
 196 637 196 637 237.5 672 c 128,-1,14
 279 707 279 707 337 707 c 2,15,-1
 391 707 l 1,16,-1
 379 651 l 1,17,-1
 336 651 l 2,18,0
 270 652 270 652 256 581 c 2,1,-1
EndSplineSet
Validated: 33
EndChar

StartChar: g
Encoding: 103 103 74
Width: 523
GlyphClass: 2
Flags: W
LayerCount: 2
Fore
SplineSet
50.5 -125.5 m 128,-1,1
 9 -89 9 -89 9 -26 c 1,2,-1
 79 -26 l 1,3,4
 82 -102 82 -102 179 -101 c 0,5,6
 300 -101 300 -101 329 35 c 2,7,-1
 344 108 l 1,8,9
 291 32 291 32 191 32 c 0,10,11
 129 32 129 32 89 67 c 128,-1,12
 49 102 49 102 49 177 c 0,13,14
 49 205 49 205 57 246 c 2,15,-1
 73 317 l 2,16,17
 97 428 97 428 154.5 478.5 c 128,-1,18
 212 529 212 529 289 529 c 0,19,20
 337 529 337 529 370 508.5 c 128,-1,21
 403 488 403 488 418 451 c 1,22,-1
 433 523 l 1,23,-1
 503 523 l 1,24,-1
 399 41 l 2,25,26
 379 -54 379 -54 321 -108 c 128,-1,27
 263 -162 263 -162 173 -162 c 0,28,0
 92 -162 92 -162 50.5 -125.5 c 128,-1,1
318.5 137.5 m 128,-1,30
 358 180 358 180 374 251 c 2,31,-1
 386 307 l 2,32,33
 392 335 392 335 392 358 c 0,34,35
 392 408 392 408 366.5 437.5 c 128,-1,36
 341 467 341 467 291 467 c 0,37,38
 239 467 239 467 200.5 432 c 128,-1,39
 162 397 162 397 142 312 c 2,40,-1
 128 248 l 2,41,42
 122 222 122 222 122 191 c 0,43,44
 122 95 122 95 214 95 c 0,45,29
 279 95 279 95 318.5 137.5 c 128,-1,30
EndSplineSet
Validated: 33
EndChar

StartChar: h
Encoding: 104 104 75
Width: 534
GlyphClass: 2
Flags: W
LayerCount: 2
Fore
SplineSet
172 707 m 1,0,-1
 242 707 l 1,1,-1
 188 456 l 1,2,3
 244 526 244 526 338 525 c 0,4,5
 406 525 406 525 443.5 491 c 128,-1,6
 481 457 481 457 481 393 c 0,7,8
 481 368 481 368 475 341 c 2,9,-1
 402 0 l 1,10,-1
 333 0 l 1,11,-1
 402 331 l 2,12,13
 407 357 407 357 408 373 c 0,14,15
 408 417 408 417 382 440 c 128,-1,16
 356 463 356 463 310 463 c 0,17,18
 254 463 254 463 214.5 428.5 c 128,-1,19
 175 394 175 394 162 331 c 2,20,-1
 91 0 l 1,21,-1
 22 0 l 1,22,-1
 172 707 l 1,0,-1
EndSplineSet
Validated: 33
EndChar

StartChar: i
Encoding: 105 105 76
Width: 223
GlyphClass: 2
Flags: W
AnchorPoint: "Anchor-0" 167 519 basechar 0
LayerCount: 2
Fore
SplineSet
132 519 m 1,0,-1
 202 519 l 1,1,-1
 91 0 l 1,2,-1
 23 0 l 1,3,-1
 132 519 l 1,0,-1
168 696 m 1,4,-1
 242 696 l 1,5,-1
 222 604 l 1,6,-1
 148 604 l 1,7,-1
 168 696 l 1,4,-1
EndSplineSet
Validated: 1
EndChar

StartChar: j
Encoding: 106 106 77
Width: 241
GlyphClass: 2
Flags: W
LayerCount: 2
Fore
SplineSet
178 707 m 1,0,-1
 252 707 l 1,1,-1
 232 614 l 1,2,-1
 159 614 l 1,3,-1
 178 707 l 1,0,-1
-96 -92 m 1,4,-1
 -54 -92 l 2,5,6
 -19 -92 -19 -92 0 -73.5 c 128,-1,7
 19 -55 19 -55 28 -15 c 2,8,-1
 141 519 l 1,9,-1
 211 519 l 1,10,-1
 96 -19 l 2,11,12
 82 -86 82 -86 42 -121 c 128,-1,13
 2 -156 2 -156 -60 -156 c 2,14,-1
 -110 -156 l 1,15,-1
 -96 -92 l 1,4,-1
EndSplineSet
Validated: 1
EndChar

StartChar: k
Encoding: 107 107 78
Width: 500
GlyphClass: 2
Flags: W
LayerCount: 2
Fore
SplineSet
299 318 m 1,0,-1
 426 0 l 1,1,-1
 349 0 l 1,2,-1
 246 268 l 1,3,-1
 124 154 l 1,4,-1
 91 0 l 1,5,-1
 22 0 l 1,6,-1
 172 707 l 1,7,-1
 242 707 l 1,8,-1
 145 254 l 1,9,-1
 424 519 l 1,10,-1
 512 519 l 1,11,-1
 299 318 l 1,0,-1
EndSplineSet
Validated: 1
EndChar

StartChar: l
Encoding: 108 108 79
Width: 279
GlyphClass: 2
Flags: W
LayerCount: 2
Fore
SplineSet
71.5 23.5 m 128,-1,1
 45 47 45 47 45 92 c 0,2,3
 45 108 45 108 50 136 c 2,4,-1
 172 707 l 1,5,-1
 242 707 l 1,6,-1
 122 140 l 2,7,8
 118 124 118 124 118 109 c 0,9,10
 118 85 118 85 130.5 74 c 128,-1,11
 143 63 143 63 170 63 c 2,12,-1
 212 63 l 1,13,-1
 199 0 l 1,14,-1
 150 0 l 2,15,0
 98 0 98 0 71.5 23.5 c 128,-1,1
EndSplineSet
Validated: 1
EndChar

StartChar: m
Encoding: 109 109 80
Width: 845
GlyphClass: 2
Flags: W
LayerCount: 2
Fore
SplineSet
132 519 m 1,0,-1
 202 519 l 1,1,-1
 187 456 l 1,2,3
 216 490 216 490 255 507.5 c 128,-1,4
 294 525 294 525 339 525 c 0,5,6
 393 525 393 525 428 502.5 c 128,-1,7
 463 480 463 480 473 438 c 1,8,9
 540 525 540 525 646 525 c 0,10,11
 716 525 716 525 754.5 490.5 c 128,-1,12
 793 456 793 456 793 393 c 0,13,14
 793 368 793 368 786 341 c 2,15,-1
 714 0 l 1,16,-1
 644 0 l 1,17,-1
 715 331 l 2,18,19
 720 357 720 357 720 372 c 0,20,21
 720 417 720 417 694.5 440 c 128,-1,22
 669 463 669 463 623 463 c 0,23,24
 566 463 566 463 526.5 428.5 c 128,-1,25
 487 394 487 394 474 334 c 2,26,-1
 403 0 l 1,27,-1
 333 0 l 1,28,-1
 403 331 l 2,29,30
 408 355 408 355 409 372 c 0,31,32
 409 417 409 417 383 440 c 128,-1,33
 357 463 357 463 311 463 c 0,34,35
 255 463 255 463 215.5 428.5 c 128,-1,36
 176 394 176 394 163 331 c 2,37,-1
 92 0 l 1,38,-1
 23 0 l 1,39,-1
 132 519 l 1,0,-1
EndSplineSet
Validated: 1
EndChar

StartChar: n
Encoding: 110 110 81
Width: 535
GlyphClass: 2
Flags: W
AnchorPoint: "Anchor-0" 318 519 basechar 0
LayerCount: 2
Fore
SplineSet
132 519 m 1,0,-1
 202 519 l 1,1,-1
 187 456 l 1,2,3
 216 491 216 491 255.5 508 c 128,-1,4
 295 525 295 525 340 525 c 0,5,6
 409 525 409 525 445.5 491 c 128,-1,7
 482 457 482 457 482 394 c 0,8,9
 482 368 482 368 476 341 c 2,10,-1
 403 0 l 1,11,-1
 334 0 l 1,12,-1
 403 330 l 2,13,14
 408 358 408 358 409 374 c 0,15,16
 409 418 409 418 384 440.5 c 128,-1,17
 359 463 359 463 314 463 c 0,18,19
 258 463 258 463 217 428.5 c 128,-1,20
 176 394 176 394 163 331 c 2,21,-1
 92 0 l 1,22,-1
 23 0 l 1,23,-1
 132 519 l 1,0,-1
EndSplineSet
Validated: 1
EndChar

StartChar: o
Encoding: 111 111 82
Width: 517
GlyphClass: 2
Flags: W
AnchorPoint: "Anchor-0" 309 519 basechar 0
LayerCount: 2
Fore
SplineSet
87 29.5 m 128,-1,1
 42 65 42 65 42 141 c 0,2,3
 42 172 42 172 49 207 c 2,4,-1
 72 313 l 2,5,6
 96 424 96 424 158.5 475 c 128,-1,7
 221 526 221 526 311 526 c 0,8,9
 386 526 386 526 431 490.5 c 128,-1,10
 476 455 476 455 476 380 c 0,11,12
 476 352 476 352 468 313 c 2,13,-1
 445 207 l 2,14,15
 421 95 421 95 359 44.5 c 128,-1,16
 297 -6 297 -6 209 -6 c 0,17,0
 132 -6 132 -6 87 29.5 c 128,-1,1
318 90.5 m 128,-1,19
 358 125 358 125 376 211 c 2,20,-1
 396 309 l 2,21,22
 403 341 403 341 403 367 c 0,23,24
 403 463 403 463 301 463 c 0,25,26
 241 463 241 463 200 428.5 c 128,-1,27
 159 394 159 394 140 309 c 2,28,-1
 120 210 l 2,29,30
 114 178 114 178 114 155 c 0,31,32
 114 101 114 101 142 78.5 c 128,-1,33
 170 56 170 56 219 56 c 0,34,18
 278 56 278 56 318 90.5 c 128,-1,19
EndSplineSet
Validated: 1
Substitution2: "Single Substitution lookup 6 subtable" ordmasculine
Substitution2: "'aalt' Access All Alternates lookup 0 subtable" ordmasculine
EndChar

StartChar: p
Encoding: 112 112 83
Width: 524
GlyphClass: 2
Flags: W
LayerCount: 2
Fore
SplineSet
132 519 m 1,0,-1
 203 519 l 1,1,-1
 187 446 l 1,2,3
 216 485 216 485 254.5 505 c 128,-1,4
 293 525 293 525 338 525 c 0,5,6
 404 525 404 525 443 489.5 c 128,-1,7
 482 454 482 454 482 380 c 0,8,9
 482 348 482 348 475 313 c 2,10,-1
 452 202 l 2,11,12
 428 93 428 93 370 43.5 c 128,-1,13
 312 -6 312 -6 237 -6 c 0,14,15
 144 -6 144 -6 108 73 c 1,16,-1
 59 -156 l 1,17,-1
 -10 -156 l 1,18,-1
 132 519 l 1,0,-1
383 210 m 2,20,-1
 403 308 l 2,21,22
 409 341 409 341 410 364 c 0,23,24
 410 417 410 417 383.5 440 c 128,-1,25
 357 463 357 463 315 463 c 0,26,27
 253 463 253 463 212.5 419.5 c 128,-1,28
 172 376 172 376 157 303 c 2,29,-1
 138 217 l 2,30,31
 132 189 132 189 132 166 c 0,32,33
 132 115 132 115 158 85.5 c 128,-1,34
 184 56 184 56 237 56 c 0,35,19
 351 56 351 56 383 210 c 2,20,-1
EndSplineSet
Validated: 1
EndChar

StartChar: q
Encoding: 113 113 84
Width: 522
GlyphClass: 2
Flags: W
LayerCount: 2
Fore
SplineSet
336 69 m 1,0,1
 281 -6 281 -6 182 -6 c 0,2,3
 120 -6 120 -6 80.5 28.5 c 128,-1,4
 41 63 41 63 41 137 c 0,5,6
 41 166 41 166 49 207 c 2,7,-1
 72 313 l 2,8,9
 96 423 96 423 154.5 474 c 128,-1,10
 213 525 213 525 290 525 c 0,11,12
 386 525 386 525 416 446 c 1,13,-1
 431 519 l 1,14,-1
 501 519 l 1,15,-1
 357 -156 l 1,16,-1
 288 -156 l 1,17,-1
 336 69 l 1,0,1
310.5 99 m 128,-1,19
 351 142 351 142 366 212 c 2,20,-1
 385 302 l 2,21,22
 390 326 390 326 390 353 c 0,23,24
 390 404 390 404 364.5 433.5 c 128,-1,25
 339 463 339 463 289 463 c 0,26,27
 176 463 176 463 141 308 c 2,28,-1
 120 211 l 2,29,30
 114 185 114 185 114 154 c 0,31,32
 114 57 114 57 206 56 c 0,33,18
 270 56 270 56 310.5 99 c 128,-1,19
EndSplineSet
Validated: 1
EndChar

StartChar: r
Encoding: 114 114 85
Width: 346
GlyphClass: 2
Flags: W
LayerCount: 2
Fore
SplineSet
132 519 m 1,0,-1
 202 519 l 1,1,-1
 186 450 l 1,2,3
 216 489 216 489 255.5 507.5 c 128,-1,4
 295 526 295 526 339 526 c 0,5,6
 358 526 358 526 377 523 c 1,7,-1
 361 454 l 1,8,9
 339 462 339 462 310 462 c 0,10,11
 256 462 256 462 215 424 c 128,-1,12
 174 386 174 386 161 322 c 2,13,-1
 92 0 l 1,14,-1
 23 0 l 1,15,-1
 132 519 l 1,0,-1
EndSplineSet
Validated: 1
EndChar

StartChar: s
Encoding: 115 115 86
Width: 477
GlyphClass: 2
Flags: W
AnchorPoint: "Anchor-0" 262 519 basechar 0
LayerCount: 2
Fore
SplineSet
69 34.5 m 128,-1,1
 25 75 25 75 25 150 c 1,2,-1
 90 150 l 1,3,4
 90 102 90 102 118 77.5 c 128,-1,5
 146 53 146 53 208 53 c 0,6,7
 265 53 265 53 303 82 c 128,-1,8
 341 111 341 111 341 160 c 0,9,10
 341 192 341 192 321.5 207 c 128,-1,11
 302 222 302 222 261 229 c 2,12,-1
 201 241 l 2,13,14
 136 253 136 253 106.5 278.5 c 128,-1,15
 77 304 77 304 77 353 c 0,16,17
 77 403 77 403 102 442.5 c 128,-1,18
 127 482 127 482 172.5 504 c 128,-1,19
 218 526 218 526 280 526 c 0,20,21
 368 526 368 526 409.5 487.5 c 128,-1,22
 451 449 451 449 451 378 c 1,23,-1
 383 378 l 1,24,25
 383 425 383 425 356.5 447 c 128,-1,26
 330 469 330 469 271 469 c 0,27,28
 215 469 215 469 180.5 440 c 128,-1,29
 146 411 146 411 146 367 c 0,30,31
 146 338 146 338 164.5 323 c 128,-1,32
 183 308 183 308 222 301 c 2,33,-1
 287 289 l 2,34,35
 353 277 353 277 382.5 248.5 c 128,-1,36
 412 220 412 220 412 170 c 0,37,38
 412 90 412 90 353.5 42 c 128,-1,39
 295 -6 295 -6 200 -6 c 0,40,0
 113 -6 113 -6 69 34.5 c 128,-1,1
EndSplineSet
Validated: 1
EndChar

StartChar: t
Encoding: 116 116 87
Width: 359
GlyphClass: 2
Flags: W
LayerCount: 2
Fore
SplineSet
163 132 m 2,0,1
 161 124 161 124 161 109 c 0,2,3
 161 62 161 62 215 61 c 2,4,-1
 256 61 l 1,5,-1
 243 0 l 1,6,-1
 190 0 l 2,7,8
 141 0 141 0 114.5 24.5 c 128,-1,9
 88 49 88 49 88 92 c 0,10,11
 88 111 88 111 92 129 c 2,12,-1
 164 464 l 1,13,-1
 83 464 l 1,14,-1
 94 519 l 1,15,-1
 175 519 l 1,16,-1
 201 638 l 1,17,-1
 278 671 l 1,18,-1
 245 519 l 1,19,-1
 362 519 l 1,20,-1
 351 464 l 1,21,-1
 233 464 l 1,22,-1
 163 132 l 2,0,1
EndSplineSet
Validated: 1
EndChar

StartChar: u
Encoding: 117 117 88
Width: 535
GlyphClass: 2
Flags: W
AnchorPoint: "Anchor-0" 323 519 basechar 0
LayerCount: 2
Fore
SplineSet
97.5 30 m 128,-1,1
 56 66 56 66 56 133 c 0,2,3
 56 156 56 156 63 194 c 2,4,-1
 132 519 l 1,5,-1
 203 519 l 1,6,-1
 134 199 l 2,7,8
 127 163 127 163 127 142 c 0,9,10
 127 99 127 99 150.5 77.5 c 128,-1,11
 174 56 174 56 225 56 c 0,12,13
 291 56 291 56 325.5 90.5 c 128,-1,14
 360 125 360 125 376 200 c 2,15,-1
 444 519 l 1,16,-1
 514 519 l 1,17,-1
 444 190 l 2,18,19
 402 -7 402 -7 219 -6 c 0,20,0
 139 -6 139 -6 97.5 30 c 128,-1,1
EndSplineSet
Validated: 33
EndChar

StartChar: v
Encoding: 118 118 89
Width: 449
GlyphClass: 2
Flags: W
LayerCount: 2
Fore
SplineSet
70 519 m 1,0,-1
 143 519 l 1,1,-1
 190 102 l 1,2,-1
 415 519 l 1,3,-1
 490 519 l 1,4,-1
 201 0 l 1,5,-1
 138 0 l 1,6,-1
 70 519 l 1,0,-1
EndSplineSet
Validated: 1
EndChar

StartChar: w
Encoding: 119 119 90
Width: 731
GlyphClass: 2
Flags: W
LayerCount: 2
Fore
SplineSet
70 519 m 1,0,-1
 143 519 l 1,1,-1
 172 103 l 1,2,-1
 388 519 l 1,3,-1
 452 519 l 1,4,-1
 492 103 l 1,5,-1
 697 519 l 1,6,-1
 772 519 l 1,7,-1
 504 0 l 1,8,-1
 440 0 l 1,9,-1
 398 419 l 1,10,-1
 180 0 l 1,11,-1
 117 0 l 1,12,-1
 70 519 l 1,0,-1
EndSplineSet
Validated: 1
EndChar

StartChar: x
Encoding: 120 120 91
Width: 434
GlyphClass: 2
Flags: W
LayerCount: 2
Fore
SplineSet
257 270 m 1,0,-1
 364 0 l 1,1,-1
 292 0 l 1,2,-1
 208 211 l 1,3,-1
 40 0 l 1,4,-1
 -40 0 l 1,5,-1
 184 269 l 1,6,-1
 84 519 l 1,7,-1
 158 519 l 1,8,-1
 234 326 l 1,9,-1
 387 519 l 1,10,-1
 466 519 l 1,11,-1
 257 270 l 1,0,-1
EndSplineSet
Validated: 1
EndChar

StartChar: y
Encoding: 121 121 92
Width: 450
GlyphClass: 2
Flags: W
AnchorPoint: "Anchor-0" 271 519 basechar 0
LayerCount: 2
Fore
SplineSet
492 519 m 1,0,-1
 169 -56 l 2,1,2
 139 -108 139 -108 102 -132 c 128,-1,3
 65 -156 65 -156 11 -156 c 2,4,-1
 -19 -156 l 1,5,-1
 -6 -92 l 1,6,-1
 18 -92 l 2,7,8
 56 -92 56 -92 78 -77 c 128,-1,9
 100 -62 100 -62 120 -27 c 2,10,-1
 138 7 l 1,11,-1
 70 519 l 1,12,-1
 144 519 l 1,13,-1
 193 108 l 1,14,-1
 417 519 l 1,15,-1
 492 519 l 1,0,-1
EndSplineSet
Validated: 1
EndChar

StartChar: z
Encoding: 122 122 93
Width: 467
GlyphClass: 2
Flags: W
AnchorPoint: "Anchor-0" 267 519 basechar 0
LayerCount: 2
Fore
SplineSet
449 455 m 1,0,-1
 100 65 l 1,1,-1
 366 65 l 1,2,-1
 352 0 l 1,3,-1
 5 0 l 1,4,-1
 19 65 l 1,5,-1
 367 455 l 1,6,-1
 102 455 l 1,7,-1
 116 519 l 1,8,-1
 462 519 l 1,9,-1
 449 455 l 1,0,-1
EndSplineSet
Validated: 1
EndChar

StartChar: braceleft
Encoding: 123 123 94
Width: 348
GlyphClass: 2
Flags: W
LayerCount: 2
Fore
SplineSet
78 -12 m 0,1,2
 78 7 78 7 82 27 c 2,3,-1
 123 222 l 2,4,5
 127 239 127 239 127 256 c 0,6,7
 127 282 127 282 113 293 c 128,-1,8
 99 304 99 304 70 305 c 1,9,-1
 84 372 l 1,10,11
 123 373 123 373 143.5 392 c 128,-1,12
 164 411 164 411 173 455 c 2,13,-1
 213 645 l 2,14,15
 237 758 237 758 342 758 c 2,16,-1
 393 758 l 1,17,-1
 380 695 l 1,18,-1
 343 695 l 2,19,20
 319 695 319 695 305.5 683 c 128,-1,21
 292 671 292 671 286 643 c 2,22,-1
 247 460 l 2,23,24
 235 403 235 403 216 376.5 c 128,-1,25
 197 350 197 350 159 338 c 1,26,27
 182 330 182 330 192 315 c 128,-1,28
 202 300 202 300 202 274 c 0,29,30
 202 249 202 249 195 217 c 2,31,-1
 155 29 l 2,32,33
 153 21 153 21 153 9 c 0,34,35
 153 -24 153 -24 190 -24 c 2,36,-1
 226 -24 l 1,37,-1
 214 -86 l 1,38,-1
 163 -86 l 2,39,0
 78 -86 78 -86 78 -12 c 0,1,2
EndSplineSet
Validated: 1
EndChar

StartChar: bar
Encoding: 124 124 95
Width: 489
GlyphClass: 2
Flags: W
LayerCount: 2
Fore
SplineSet
226 758 m 1,0,-1
 295 758 l 1,1,-1
 295 -85 l 1,2,-1
 226 -85 l 1,3,-1
 226 758 l 1,0,-1
EndSplineSet
Validated: 1
EndChar

StartChar: braceright
Encoding: 125 125 96
Width: 470
GlyphClass: 2
Flags: W
LayerCount: 2
Fore
SplineSet
60 -24 m 1,0,-1
 96 -24 l 2,1,2
 120 -24 120 -24 134 -11.5 c 128,-1,3
 148 1 148 1 155 29 c 2,4,-1
 195 217 l 2,5,6
 207 273 207 273 226 299.5 c 128,-1,7
 245 326 245 326 282 338 c 1,8,9
 259 346 259 346 249.5 361 c 128,-1,10
 240 376 240 376 240 402 c 0,11,12
 240 427 240 427 247 460 c 2,13,-1
 286 643 l 2,14,15
 288 650 288 650 288 663 c 0,16,17
 288 696 288 696 250 695 c 2,18,-1
 213 695 l 1,19,-1
 226 758 l 1,20,-1
 278 758 l 2,21,22
 364 758 364 758 364 682 c 0,23,24
 364 663 364 663 359 645 c 2,25,-1
 318 455 l 2,26,27
 314 438 314 438 314 421 c 0,28,29
 314 395 314 395 328 384 c 128,-1,30
 342 373 342 373 373 372 c 1,31,-1
 357 305 l 1,32,33
 319 304 319 304 298.5 285 c 128,-1,34
 278 266 278 266 268 222 c 2,35,-1
 227 27 l 2,36,37
 203 -86 203 -86 98 -86 c 2,38,-1
 47 -86 l 1,39,-1
 60 -24 l 1,0,-1
EndSplineSet
Validated: 33
EndChar

StartChar: asciitilde
Encoding: 126 126 97
Width: 524
GlyphClass: 2
Flags: W
LayerCount: 2
Fore
SplineSet
300 226.5 m 128,-1,1
 279 236 279 236 252 253 c 0,2,3
 228 268 228 268 213.5 275.5 c 128,-1,4
 199 283 199 283 181 283 c 0,5,6
 156 283 156 283 138.5 269.5 c 128,-1,7
 121 256 121 256 101 221 c 1,8,-1
 51 252 l 1,9,10
 73 299 73 299 106.5 323 c 128,-1,11
 140 347 140 347 181 347 c 0,12,13
 207 347 207 347 227.5 338 c 128,-1,14
 248 329 248 329 276 311 c 0,15,16
 301 297 301 297 316 290 c 128,-1,17
 331 283 331 283 348 283 c 0,18,19
 373 283 373 283 391 296.5 c 128,-1,20
 409 310 409 310 428 344 c 1,21,-1
 478 312 l 1,22,23
 455 266 455 266 421.5 241.5 c 128,-1,24
 388 217 388 217 347 217 c 0,25,0
 321 217 321 217 300 226.5 c 128,-1,1
EndSplineSet
Validated: 1
EndChar

StartChar: exclamdown
Encoding: 161 161 99
Width: 244
GlyphClass: 2
Flags: W
LayerCount: 2
Fore
SplineSet
132 519 m 1,0,-1
 224 519 l 1,1,-1
 204 423 l 1,2,-1
 112 423 l 1,3,-1
 132 519 l 1,0,-1
106 318 m 1,4,-1
 164 318 l 1,5,-1
 78 -156 l 1,6,-1
 -8 -156 l 1,7,-1
 106 318 l 1,4,-1
EndSplineSet
Validated: 1
EndChar

StartChar: cent
Encoding: 162 162 100
Width: 516
GlyphClass: 2
Flags: W
LayerCount: 2
Fore
SplineSet
407 348 m 1,0,-1
 408 366 l 1,1,2
 408 453 408 453 328 462 c 1,3,-1
 241 57 l 1,4,5
 295 61 295 61 327 90.5 c 128,-1,6
 359 120 359 120 368 171 c 1,7,-1
 434 171 l 1,8,9
 425 90 425 90 370 43 c 128,-1,10
 315 -4 315 -4 227 -6 c 1,11,-1
 207 -102 l 1,12,-1
 147 -102 l 1,13,-1
 169 -2 l 1,14,15
 111 8 111 8 77 45 c 128,-1,16
 43 82 43 82 43 147 c 0,17,18
 43 178 43 178 50 213 c 2,19,-1
 72 313 l 2,20,21
 114 510 114 510 282 525 c 1,22,-1
 302 622 l 1,23,-1
 361 622 l 1,24,-1
 341 524 l 1,25,26
 407 517 407 517 441 478.5 c 128,-1,27
 475 440 475 440 475 374 c 0,28,29
 475 357 475 357 474 348 c 1,30,-1
 407 348 l 1,0,-1
132 92 m 128,-1,32
 150 69 150 69 182 60 c 1,33,-1
 267 460 l 1,34,35
 220 452 220 452 188 416.5 c 128,-1,36
 156 381 156 381 140 309 c 2,37,-1
 121 217 l 2,38,39
 114 185 114 185 114 158 c 0,40,31
 114 115 114 115 132 92 c 128,-1,32
EndSplineSet
Validated: 1
EndChar

StartChar: sterling
Encoding: 163 163 101
Width: 446
GlyphClass: 2
Flags: W
LayerCount: 2
Fore
SplineSet
444.5 687.5 m 128,-1,1
 477 658 477 658 477 604 c 0,2,3
 477 587 477 587 472 561 c 1,4,-1
 398 561 l 1,5,6
 401 575 401 575 401 587 c 0,7,8
 401 616 401 616 385 631.5 c 128,-1,9
 369 647 369 647 339 647 c 0,10,11
 301 647 301 647 275 623 c 128,-1,12
 249 599 249 599 239 552 c 2,13,-1
 199 365 l 1,14,-1
 341 365 l 1,15,-1
 327 297 l 1,16,-1
 184 297 l 1,17,-1
 160 178 l 2,18,19
 152 141 152 141 138.5 115 c 128,-1,20
 125 89 125 89 102 70 c 1,21,-1
 373 70 l 1,22,-1
 357 0 l 1,23,-1
 0 0 l 1,24,-1
 14 63 l 1,25,26
 43 78 43 78 59 103 c 128,-1,27
 75 128 75 128 83 169 c 2,28,-1
 110 297 l 1,29,-1
 42 297 l 1,30,-1
 56 365 l 1,31,-1
 124 365 l 1,32,-1
 161 541 l 2,33,34
 178 624 178 624 229.5 670.5 c 128,-1,35
 281 717 281 717 354 717 c 0,36,0
 412 717 412 717 444.5 687.5 c 128,-1,1
EndSplineSet
Validated: 1
EndChar

StartChar: currency
Encoding: 164 164 102
Width: 627
GlyphClass: 2
Flags: W
LayerCount: 2
Fore
SplineSet
412 170 m 1,0,1
 355 133 355 133 288 133 c 0,2,3
 220 133 220 133 177 170 c 1,4,-1
 90 98 l 1,5,-1
 53 147 l 1,6,-1
 140 218 l 1,7,8
 124 253 124 253 124 290 c 0,9,10
 124 332 124 332 142 375.5 c 128,-1,11
 160 419 160 419 190 452 c 1,12,-1
 133 524 l 1,13,-1
 191 572 l 1,14,-1
 249 501 l 1,15,16
 307 537 307 537 373 537 c 0,17,18
 436 537 436 537 482 501 c 1,19,-1
 569 572 l 1,20,-1
 607 524 l 1,21,-1
 519 453 l 1,22,23
 536 420 536 420 537 379 c 0,24,25
 537 336 537 336 519 293.5 c 128,-1,26
 501 251 501 251 470 218 c 1,27,-1
 527 146 l 1,28,-1
 469 97 l 1,29,-1
 412 170 l 1,0,1
383 219.5 m 128,-1,31
 422 243 422 243 445.5 282.5 c 128,-1,32
 469 322 469 322 469 367 c 0,33,34
 469 414 469 414 439.5 444 c 128,-1,35
 410 474 410 474 359 474 c 0,36,37
 313 474 313 474 274.5 449.5 c 128,-1,38
 236 425 236 425 213 384.5 c 128,-1,39
 190 344 190 344 190 301 c 0,40,41
 190 254 190 254 220 225 c 128,-1,42
 250 196 250 196 300 196 c 0,43,30
 344 196 344 196 383 219.5 c 128,-1,31
EndSplineSet
Validated: 1
EndChar

StartChar: yen
Encoding: 165 165 103
Width: 464
GlyphClass: 2
Flags: W
LayerCount: 2
Fore
SplineSet
174 159 m 1,0,-1
 29 159 l 1,1,-1
 41 216 l 1,2,-1
 186 216 l 1,3,-1
 201 285 l 1,4,-1
 56 285 l 1,5,-1
 69 343 l 1,6,-1
 194 343 l 1,7,-1
 105 707 l 1,8,-1
 189 707 l 1,9,-1
 258 374 l 1,10,-1
 467 707 l 1,11,-1
 550 707 l 1,12,-1
 308 343 l 1,13,-1
 433 343 l 1,14,-1
 420 285 l 1,15,-1
 275 285 l 1,16,-1
 261 216 l 1,17,-1
 406 216 l 1,18,-1
 393 159 l 1,19,-1
 249 159 l 1,20,-1
 215 0 l 1,21,-1
 140 0 l 1,22,-1
 174 159 l 1,0,-1
EndSplineSet
Validated: 1
EndChar

StartChar: brokenbar
Encoding: 166 166 104
Width: 489
GlyphClass: 2
Flags: W
LayerCount: 2
Fore
SplineSet
226 758 m 1,0,-1
 295 758 l 1,1,-1
 295 397 l 1,2,-1
 226 397 l 1,3,-1
 226 758 l 1,0,-1
226 278 m 1,4,-1
 295 278 l 1,5,-1
 295 -85 l 1,6,-1
 226 -85 l 1,7,-1
 226 278 l 1,4,-1
EndSplineSet
Validated: 1
EndChar

StartChar: section
Encoding: 167 167 105
Width: 523
GlyphClass: 2
Flags: W
LayerCount: 2
Fore
SplineSet
71.5 -142.5 m 128,-1,1
 33 -113 33 -113 33 -56 c 0,2,3
 33 -33 33 -33 39 -4 c 1,4,-1
 110 -4 l 1,5,6
 106 -21 106 -21 105 -39 c 0,7,8
 105 -107 105 -107 181 -106 c 0,9,10
 226 -106 226 -106 255.5 -82.5 c 128,-1,11
 285 -59 285 -59 293 -16 c 0,12,13
 296 -1 296 -1 296 11 c 0,14,15
 296 44 296 44 271 64 c 128,-1,16
 246 84 246 84 188 98 c 0,17,18
 80 125 80 125 81 227 c 0,19,20
 81 253 81 253 87 282 c 0,21,22
 99 341 99 341 134.5 384.5 c 128,-1,23
 170 428 170 428 223 445 c 1,24,25
 168 479 168 479 168 541 c 0,26,27
 168 595 168 595 192.5 638.5 c 128,-1,28
 217 682 217 682 260.5 706.5 c 128,-1,29
 304 731 304 731 360 731 c 0,30,31
 426 731 426 731 460 701.5 c 128,-1,32
 494 672 494 672 494 618 c 0,33,34
 494 591 494 591 488 570 c 1,35,-1
 419 570 l 1,36,37
 423 593 423 593 423 602 c 0,38,39
 423 665 423 665 352 666 c 0,40,41
 303 666 303 666 273.5 635 c 128,-1,42
 244 604 244 604 244 551 c 0,43,44
 244 519 244 519 266.5 500.5 c 128,-1,45
 289 482 289 482 345 466 c 0,46,47
 403 450 403 450 428 419 c 128,-1,48
 453 388 453 388 453 337 c 0,49,50
 453 312 453 312 446 282 c 0,51,52
 435 224 435 224 399.5 180 c 128,-1,53
 364 136 364 136 312 120 c 1,54,55
 371 88 371 88 372 25 c 0,56,57
 372 8 372 8 367 -18 c 0,58,59
 353 -89 353 -89 302.5 -130.5 c 128,-1,60
 252 -172 252 -172 178 -172 c 0,61,0
 110 -172 110 -172 71.5 -142.5 c 128,-1,1
325.5 194 m 128,-1,63
 360 225 360 225 373 282 c 0,64,65
 377 301 377 301 377 319 c 0,66,67
 377 359 377 359 355.5 380 c 128,-1,68
 334 401 334 401 293 401 c 0,69,70
 243 401 243 401 208.5 370 c 128,-1,71
 174 339 174 339 161 282 c 0,72,73
 157 265 157 265 157 245 c 0,74,75
 157 206 157 206 179 184.5 c 128,-1,76
 201 163 201 163 242 163 c 0,77,62
 291 163 291 163 325.5 194 c 128,-1,63
330 724 m 1024,78,-1
EndSplineSet
Validated: 33
EndChar

StartChar: dieresis
Encoding: 168 168 106
Width: 512
GlyphClass: 2
Flags: W
LayerCount: 2
Fore
SplineSet
218 680 m 1,0,-1
 296 680 l 1,1,-1
 278 592 l 1,2,-1
 200 592 l 1,3,-1
 218 680 l 1,0,-1
393 680 m 1,4,-1
 471 680 l 1,5,-1
 453 592 l 1,6,-1
 375 592 l 1,7,-1
 393 680 l 1,4,-1
EndSplineSet
Validated: 1
EndChar

StartChar: copyright
Encoding: 169 169 107
Width: 859
GlyphClass: 2
Flags: W
LayerCount: 2
Fore
SplineSet
264.5 35.5 m 128,-1,1
 184 81 184 81 140 162.5 c 128,-1,2
 96 244 96 244 96 348 c 256,3,4
 96 452 96 452 140.5 533.5 c 128,-1,5
 185 615 185 615 265 661 c 128,-1,6
 345 707 345 707 449 707 c 256,7,8
 552 707 552 707 632 661 c 128,-1,9
 712 615 712 615 756.5 534 c 128,-1,10
 801 453 801 453 801 348 c 256,11,12
 801 244 801 244 756.5 162.5 c 128,-1,13
 712 81 712 81 632 35.5 c 128,-1,14
 552 -10 552 -10 449 -10 c 256,15,0
 345 -10 345 -10 264.5 35.5 c 128,-1,1
603.5 82 m 128,-1,17
 670 120 670 120 706 188.5 c 128,-1,18
 742 257 742 257 742 348 c 256,19,20
 742 439 742 439 706 508 c 128,-1,21
 670 577 670 577 603.5 614.5 c 128,-1,22
 537 652 537 652 449 652 c 256,23,24
 361 652 361 652 293.5 614.5 c 128,-1,25
 226 577 226 577 190 508 c 128,-1,26
 154 439 154 439 154 348 c 256,27,28
 154 257 154 257 190 188.5 c 128,-1,29
 226 120 226 120 293 82 c 128,-1,30
 360 44 360 44 449 44 c 256,31,16
 537 44 537 44 603.5 82 c 128,-1,17
341 189.5 m 128,-1,33
 300 227 300 227 300 311 c 2,34,-1
 300 390 l 2,35,36
 300 474 300 474 341 512 c 128,-1,37
 382 550 382 550 452 550 c 0,38,39
 519 550 519 550 557.5 515 c 128,-1,40
 596 480 596 480 596 421 c 2,41,-1
 596 416 l 1,42,-1
 543 416 l 1,43,-1
 543 419 l 2,44,45
 543 458 543 458 519 479 c 128,-1,46
 495 500 495 500 454 500 c 0,47,48
 407 500 407 500 381 475 c 128,-1,49
 355 450 355 450 355 387 c 2,50,-1
 355 314 l 2,51,52
 355 251 355 251 381 226 c 128,-1,53
 407 201 407 201 454 201 c 0,54,55
 495 201 495 201 519 222.5 c 128,-1,56
 543 244 543 244 543 282 c 2,57,-1
 543 286 l 1,58,-1
 596 286 l 1,59,-1
 596 281 l 2,60,61
 596 222 596 222 557 187 c 128,-1,62
 518 152 518 152 453 152 c 0,63,32
 382 152 382 152 341 189.5 c 128,-1,33
EndSplineSet
Validated: 1
EndChar

StartChar: ordfeminine
Encoding: 170 170 108
Width: 339
GlyphClass: 2
Flags: W
LayerCount: 2
Fore
SplineSet
126 458 m 128,-1,1
 102 480 102 480 102 525 c 0,2,3
 102 542 102 542 108 568 c 2,4,-1
 121 634 l 2,5,6
 134 701 134 701 169 733.5 c 128,-1,7
 204 766 204 766 251 766 c 0,8,9
 304 766 304 766 326 719 c 1,10,-1
 335 762 l 1,11,-1
 398 762 l 1,12,-1
 331 440 l 1,13,-1
 264 440 l 1,14,-1
 273 478 l 1,15,16
 244 436 244 436 188 436 c 0,17,0
 150 436 150 436 126 458 c 128,-1,1
267 516.5 m 128,-1,19
 286 537 286 537 293 571 c 2,20,-1
 305 629 l 2,21,22
 308 643 308 643 308 654 c 0,23,24
 308 678 308 678 296 692.5 c 128,-1,25
 284 707 284 707 259 707 c 0,26,27
 203 707 203 707 186 632 c 2,28,-1
 173 569 l 2,29,30
 170 556 170 556 170 544 c 0,31,32
 170 519 170 519 183 507.5 c 128,-1,33
 196 496 196 496 217 496 c 0,34,18
 248 496 248 496 267 516.5 c 128,-1,19
262 867 m 1024,35,-1
EndSplineSet
Validated: 1
EndChar

StartChar: guillemotleft
Encoding: 171 171 109
Width: 489
GlyphClass: 2
Flags: W
LayerCount: 2
Fore
SplineSet
28 270 m 1,0,-1
 270 473 l 1,1,-1
 253 388 l 1,2,-1
 112 270 l 1,3,-1
 203 153 l 1,4,-1
 184 68 l 1,5,-1
 28 270 l 1,0,-1
215 270 m 1,6,-1
 458 473 l 1,7,-1
 440 388 l 1,8,-1
 299 270 l 1,9,-1
 390 153 l 1,10,-1
 372 68 l 1,11,-1
 215 270 l 1,6,-1
EndSplineSet
Validated: 1
EndChar

StartChar: logicalnot
Encoding: 172 172 110
Width: 524
GlyphClass: 2
Flags: W
LayerCount: 2
Fore
SplineSet
391 270 m 1,0,-1
 51 270 l 1,1,-1
 51 334 l 1,2,-1
 462 334 l 1,3,-1
 462 133 l 1,4,-1
 391 133 l 1,5,-1
 391 270 l 1,0,-1
EndSplineSet
Validated: 1
EndChar

StartChar: registered
Encoding: 174 174 112
Width: 559
GlyphClass: 2
Flags: W
LayerCount: 2
Fore
SplineSet
234 339 m 128,-1,1
 190 365 190 365 165 410 c 128,-1,2
 140 455 140 455 140 510 c 256,3,4
 140 565 140 565 165 609.5 c 128,-1,5
 190 654 190 654 234.5 680 c 128,-1,6
 279 706 279 706 333 706 c 0,7,8
 388 706 388 706 431.5 680 c 128,-1,9
 475 654 475 654 500 609.5 c 128,-1,10
 525 565 525 565 525 510 c 0,11,12
 525 454 525 454 500.5 409.5 c 128,-1,13
 476 365 476 365 432 339 c 128,-1,14
 388 313 388 313 333 313 c 256,15,0
 278 313 278 313 234 339 c 128,-1,1
447 391.5 m 128,-1,17
 492 438 492 438 492 510 c 256,18,19
 492 582 492 582 447 628 c 128,-1,20
 402 674 402 674 333 674 c 256,21,22
 263 674 263 674 218.5 628 c 128,-1,23
 174 582 174 582 174 510 c 256,24,25
 174 438 174 438 218.5 391.5 c 128,-1,26
 263 345 263 345 333 345 c 256,27,16
 402 345 402 345 447 391.5 c 128,-1,17
261 621 m 1,28,-1
 344 621 l 2,29,30
 379 621 379 621 398 604 c 128,-1,31
 417 587 417 587 417 556 c 0,32,33
 417 534 417 534 406 518.5 c 128,-1,34
 395 503 395 503 377 496 c 1,35,-1
 422 401 l 1,36,-1
 382 401 l 1,37,-1
 339 492 l 1,38,-1
 298 492 l 1,39,-1
 298 401 l 1,40,-1
 261 401 l 1,41,-1
 261 621 l 1,28,-1
344 524 m 2,42,43
 380 524 380 524 380 556 c 256,44,45
 380 588 380 588 344 588 c 2,46,-1
 298 588 l 1,47,-1
 298 524 l 1,48,-1
 344 524 l 2,42,43
EndSplineSet
Validated: 1
EndChar

StartChar: macron
Encoding: 175 175 113
Width: 498
GlyphClass: 2
Flags: W
LayerCount: 2
Fore
SplineSet
209 668 m 1,0,-1
 475 668 l 1,1,-1
 462 604 l 1,2,-1
 196 604 l 1,3,-1
 209 668 l 1,0,-1
EndSplineSet
Validated: 1
EndChar

StartChar: degree
Encoding: 176 176 114
Width: 375
GlyphClass: 2
Flags: W
LayerCount: 2
Fore
SplineSet
153 471 m 128,-1,1
 112 512 112 512 112 573 c 256,2,3
 112 634 112 634 153 675.5 c 128,-1,4
 194 717 194 717 255 717 c 0,5,6
 315 717 315 717 356.5 676 c 128,-1,7
 398 635 398 635 398 573 c 256,8,9
 398 512 398 512 356.5 471 c 128,-1,10
 315 430 315 430 255 430 c 0,11,0
 194 430 194 430 153 471 c 128,-1,1
319.5 507 m 128,-1,13
 345 534 345 534 345 573 c 0,14,15
 345 614 345 614 320 641 c 128,-1,16
 295 668 295 668 255 668 c 256,17,18
 215 668 215 668 189.5 641 c 128,-1,19
 164 614 164 614 164 573 c 0,20,21
 164 533 164 533 189.5 506.5 c 128,-1,22
 215 480 215 480 255 480 c 0,23,12
 294 480 294 480 319.5 507 c 128,-1,13
EndSplineSet
Validated: 1
EndChar

StartChar: plusminus
Encoding: 177 177 115
Width: 524
GlyphClass: 2
Flags: W
LayerCount: 2
Fore
SplineSet
447 353 m 1,0,-1
 447 286 l 1,1,-1
 278 286 l 1,2,-1
 278 116 l 1,3,-1
 210 116 l 1,4,-1
 210 286 l 1,5,-1
 40 286 l 1,6,-1
 40 353 l 1,7,-1
 210 353 l 1,8,-1
 210 523 l 1,9,-1
 278 523 l 1,10,-1
 278 353 l 1,11,-1
 447 353 l 1,0,-1
40 63 m 1,12,-1
 447 63 l 1,13,-1
 447 -4 l 1,14,-1
 40 -4 l 1,15,-1
 40 63 l 1,12,-1
EndSplineSet
Validated: 1
EndChar

StartChar: acute
Encoding: 180 180 118
Width: 512
GlyphClass: 2
Flags: W
LayerCount: 2
Fore
SplineSet
359 714 m 1,0,-1
 445 714 l 1,1,-1
 296 586 l 1,2,-1
 231 586 l 1,3,-1
 359 714 l 1,0,-1
EndSplineSet
Validated: 1
EndChar

StartChar: uni00B5
Encoding: 181 181 119
Width: 528
GlyphClass: 2
Flags: W
LayerCount: 2
Fore
SplineSet
132 519 m 1,0,-1
 203 519 l 1,1,-1
 131 182 l 2,2,3
 126 156 126 156 126 136 c 0,4,5
 126 97 126 97 150.5 76 c 128,-1,6
 175 55 175 55 218 55 c 0,7,8
 269 55 269 55 310.5 89 c 128,-1,9
 352 123 352 123 365 182 c 2,10,-1
 436 519 l 1,11,-1
 507 519 l 1,12,-1
 396 0 l 1,13,-1
 327 0 l 1,14,-1
 340 61 l 1,15,16
 282 -9 282 -9 194 -8 c 0,17,18
 127 -8 127 -8 99 32 c 1,19,-1
 59 -156 l 1,20,-1
 -10 -156 l 1,21,-1
 132 519 l 1,0,-1
EndSplineSet
Validated: 33
EndChar

StartChar: paragraph
Encoding: 182 182 120
Width: 585
GlyphClass: 2
Flags: W
LayerCount: 2
Fore
SplineSet
278 279 m 1,0,1
 205 284 205 284 165 327.5 c 128,-1,2
 125 371 125 371 125 439 c 0,3,4
 125 465 125 465 131 493 c 0,5,6
 143 553 143 553 179.5 601.5 c 128,-1,7
 216 650 216 650 272.5 678.5 c 128,-1,8
 329 707 329 707 398 707 c 2,9,-1
 599 707 l 1,10,-1
 416 -156 l 1,11,-1
 347 -156 l 1,12,-1
 516 640 l 1,13,-1
 423 640 l 1,14,-1
 254 -156 l 1,15,-1
 185 -156 l 1,16,-1
 278 279 l 1,0,1
EndSplineSet
Validated: 1
EndChar

StartChar: periodcentered
Encoding: 183 183 121
Width: 244
GlyphClass: 2
Flags: W
LayerCount: 2
Fore
SplineSet
91 324 m 1,0,-1
 181 324 l 1,1,-1
 162 228 l 1,2,-1
 71 228 l 1,3,-1
 91 324 l 1,0,-1
EndSplineSet
Validated: 1
EndChar

StartChar: cedilla
Encoding: 184 184 122
Width: 498
GlyphClass: 2
Flags: W
LayerCount: 2
Fore
SplineSet
205 12 m 1,0,-1
 266 12 l 1,1,-1
 178 -154 l 1,2,-1
 104 -154 l 1,3,-1
 205 12 l 1,0,-1
EndSplineSet
Validated: 1
EndChar

StartChar: ordmasculine
Encoding: 186 186 124
Width: 337
GlyphClass: 2
Flags: W
LayerCount: 2
Fore
SplineSet
133 459 m 128,-1,1
 102 482 102 482 102 530 c 0,2,3
 102 546 102 546 108 570 c 2,4,-1
 121 632 l 2,5,6
 136 702 136 702 173 734 c 128,-1,7
 210 766 210 766 269 766 c 0,8,9
 320 766 320 766 349.5 742.5 c 128,-1,10
 379 719 379 719 379 671 c 0,11,12
 379 653 379 653 375 633 c 2,13,-1
 362 570 l 2,14,15
 336 436 336 436 215 436 c 0,16,0
 164 436 164 436 133 459 c 128,-1,1
269 513 m 128,-1,18
 287 530 287 530 296 571 c 2,19,-1
 309 632 l 2,20,21
 312 647 312 647 312 658 c 0,22,23
 312 683 312 683 298.5 695 c 128,-1,24
 285 707 285 707 261 707 c 0,25,26
 232 707 232 707 214 689.5 c 128,-1,27
 196 672 196 672 186 632 c 2,28,-1
 173 569 l 2,29,30
 170 556 170 556 170 544 c 0,31,32
 170 496 170 496 223 496 c 0,33,17
 251 496 251 496 269 513 c 128,-1,18
271 867 m 1024,34,-1
EndSplineSet
Validated: 1
EndChar

StartChar: guillemotright
Encoding: 187 187 125
Width: 490
GlyphClass: 2
Flags: W
LayerCount: 2
Fore
SplineSet
55 153 m 1,0,-1
 196 270 l 1,1,-1
 104 388 l 1,2,-1
 123 473 l 1,3,-1
 280 270 l 1,4,-1
 37 68 l 1,5,-1
 55 153 l 1,0,-1
243 153 m 1,6,-1
 383 270 l 1,7,-1
 292 388 l 1,8,-1
 310 473 l 1,9,-1
 467 270 l 1,10,-1
 224 68 l 1,11,-1
 243 153 l 1,6,-1
EndSplineSet
Validated: 1
EndChar

StartChar: questiondown
Encoding: 191 191 129
Width: 440
GlyphClass: 2
Flags: W
LayerCount: 2
Fore
SplineSet
236 519 m 1,0,-1
 327 519 l 1,1,-1
 306 424 l 1,2,-1
 215 424 l 1,3,-1
 236 519 l 1,0,-1
29.5 -131 m 128,-1,5
 -10 -96 -10 -96 -10 -37 c 0,6,7
 -10 17 -10 17 12.5 59 c 128,-1,8
 35 101 35 101 81 147 c 2,9,-1
 142 209 l 2,10,11
 169 236 169 236 178.5 253.5 c 128,-1,12
 188 271 188 271 196 304 c 2,13,-1
 204 340 l 1,14,-1
 279 340 l 1,15,-1
 269 303 l 2,16,17
 259 261 259 261 246 236.5 c 128,-1,18
 233 212 233 212 200 178 c 2,19,-1
 139 119 l 2,20,21
 101 82 101 82 83.5 48.5 c 128,-1,22
 66 15 66 15 66 -25 c 0,23,24
 66 -61 66 -61 87.5 -80 c 128,-1,25
 109 -99 109 -99 152 -99 c 0,26,27
 253 -99 253 -99 273 13 c 1,28,-1
 348 13 l 1,29,30
 332 -73 332 -73 277.5 -119.5 c 128,-1,31
 223 -166 223 -166 138 -166 c 0,32,4
 69 -166 69 -166 29.5 -131 c 128,-1,5
EndSplineSet
Validated: 1
EndChar

StartChar: Aring
Encoding: 197 197 135
Width: 583
GlyphClass: 2
Flags: W
AnchorPoint: "Anchor-0" 370 692 basechar 0
LayerCount: 2
Fore
SplineSet
423 170 m 1,0,-1
 123 170 l 1,1,-1
 28 0 l 1,2,-1
 -51 0 l 1,3,-1
 354 706 l 1,4,5
 330 717 330 717 317 739.5 c 128,-1,6
 304 762 304 762 304 790 c 0,7,8
 304 831 304 831 330 857.5 c 128,-1,9
 356 884 356 884 397 884 c 0,10,11
 437 884 437 884 463.5 857 c 128,-1,12
 490 830 490 830 490 790 c 0,13,14
 490 756 490 756 471 731.5 c 128,-1,15
 452 707 452 707 420 698 c 1,16,-1
 524 0 l 1,17,-1
 446 0 l 1,18,-1
 423 170 l 1,0,-1
359.5 829 m 128,-1,20
 344 813 344 813 344 790 c 256,21,22
 344 766 344 766 359.5 750.5 c 128,-1,23
 375 735 375 735 397 735 c 256,24,25
 420 735 420 735 435.5 750.5 c 128,-1,26
 451 766 451 766 451 790 c 256,27,28
 451 814 451 814 435.5 829.5 c 128,-1,29
 420 845 420 845 397 845 c 256,30,19
 375 845 375 845 359.5 829 c 128,-1,20
415 233 m 1,31,-1
 365 602 l 1,32,-1
 159 233 l 1,33,-1
 415 233 l 1,31,-1
385 707 m 1024,34,-1
EndSplineSet
Validated: 1
EndChar

StartChar: AE
Encoding: 198 198 136
Width: 891
GlyphClass: 2
Flags: W
LayerCount: 2
Fore
SplineSet
587 639 m 1,0,-1
 535 393 l 1,1,-1
 810 393 l 1,2,-1
 797 326 l 1,3,-1
 520 326 l 1,4,-1
 466 68 l 1,5,-1
 794 68 l 1,6,-1
 778 0 l 1,7,-1
 377 0 l 1,8,-1
 414 175 l 1,9,-1
 166 175 l 1,10,-1
 34 0 l 1,11,-1
 -51 0 l 1,12,-1
 483 707 l 1,13,-1
 929 707 l 1,14,-1
 914 639 l 1,15,-1
 587 639 l 1,0,-1
512 635 m 1,16,-1
 214 239 l 1,17,-1
 428 239 l 1,18,-1
 512 635 l 1,16,-1
EndSplineSet
Validated: 1
EndChar

StartChar: Ccedilla
Encoding: 199 199 137
Width: 624
GlyphClass: 2
Flags: W
LayerCount: 2
Fore
SplineSet
532 497 m 1,0,1
 534 506 534 506 535 522 c 0,2,3
 535 582 535 582 499.5 615 c 128,-1,4
 464 648 464 648 395 648 c 0,5,6
 311 648 311 648 258.5 600 c 128,-1,7
 206 552 206 552 182 442 c 2,8,-1
 142 258 l 2,9,10
 134 219 134 219 134 193 c 0,11,12
 134 125 134 125 173 92.5 c 128,-1,13
 212 60 212 60 282 60 c 0,14,15
 358 60 358 60 406 99 c 128,-1,16
 454 138 454 138 471 208 c 2,17,-1
 472 212 l 1,18,-1
 545 212 l 1,19,-1
 544 208 l 2,20,21
 520 116 520 116 457 58.5 c 128,-1,22
 394 1 394 1 299 -7 c 1,23,-1
 221 -154 l 1,24,-1
 147 -154 l 1,25,-1
 237 -7 l 1,26,27
 155 0 155 0 107 45.5 c 128,-1,28
 59 91 59 91 59 179 c 0,29,30
 59 216 59 216 69 262 c 2,31,-1
 108 445 l 2,32,33
 138 587 138 587 215 651.5 c 128,-1,34
 292 716 292 716 404 716 c 0,35,36
 503 716 503 716 556.5 666.5 c 128,-1,37
 610 617 610 617 610 530 c 0,38,39
 610 514 610 514 607 497 c 1,40,-1
 532 497 l 1,0,1
EndSplineSet
Validated: 1
EndChar

StartChar: Eth
Encoding: 208 208 146
Width: 672
GlyphClass: 2
Flags: W
LayerCount: 2
Fore
SplineSet
600 663.5 m 128,-1,1
 653 620 653 620 653 525 c 0,2,3
 653 484 653 484 643 437 c 2,4,-1
 607 269 l 2,5,6
 577 129 577 129 497.5 64.5 c 128,-1,7
 418 0 418 0 306 0 c 2,8,-1
 65 0 l 1,9,-1
 133 324 l 1,10,-1
 51 324 l 1,11,-1
 66 391 l 1,12,-1
 147 391 l 1,13,-1
 215 707 l 1,14,-1
 455 707 l 2,15,0
 547 707 547 707 600 663.5 c 128,-1,1
578 515 m 0,17,18
 578 580 578 580 544 609.5 c 128,-1,19
 510 639 510 639 445 639 c 2,20,-1
 275 639 l 1,21,-1
 223 391 l 1,22,-1
 377 391 l 1,23,-1
 364 324 l 1,24,-1
 209 324 l 1,25,-1
 155 68 l 1,26,-1
 321 68 l 2,27,28
 490 68 490 68 531 265 c 2,29,-1
 567 434 l 2,30,16
 578 485 578 485 578 515 c 0,17,18
EndSplineSet
Validated: 1
EndChar

StartChar: multiply
Encoding: 215 215 153
Width: 524
GlyphClass: 2
Flags: W
LayerCount: 2
Fore
SplineSet
313 284 m 1,0,-1
 439 157 l 1,1,-1
 394 112 l 1,2,-1
 267 238 l 1,3,-1
 141 112 l 1,4,-1
 95 157 l 1,5,-1
 222 284 l 1,6,-1
 95 410 l 1,7,-1
 141 455 l 1,8,-1
 267 329 l 1,9,-1
 394 455 l 1,10,-1
 439 410 l 1,11,-1
 313 284 l 1,0,-1
EndSplineSet
Validated: 1
EndChar

StartChar: Oslash
Encoding: 216 216 154
Width: 623
GlyphClass: 2
Flags: W
AnchorPoint: "Anchor-0" 396 707 basechar 0
LayerCount: 2
Fore
SplineSet
581 632 m 1,0,1
 606 589 606 589 605 528 c 0,2,3
 605 491 605 491 596 445 c 2,4,-1
 557 262 l 2,5,6
 500 -8 500 -8 268 -8 c 0,7,8
 168 -8 168 -8 115 39 c 1,9,-1
 68 -20 l 1,10,-1
 8 -20 l 1,11,-1
 84 76 l 1,12,13
 59 119 59 119 59 179 c 0,14,15
 59 216 59 216 69 262 c 2,16,-1
 108 445 l 2,17,18
 165 715 165 715 398 716 c 0,19,20
 496 716 496 716 550 669 c 1,21,-1
 596 727 l 1,22,-1
 655 727 l 1,23,-1
 581 632 l 1,0,1
139 146 m 1,25,-1
 502 607 l 1,26,27
 467 648 467 648 389 648 c 0,28,29
 306 648 306 648 256 600 c 128,-1,30
 206 552 206 552 182 442 c 2,31,-1
 142 258 l 2,32,33
 134 219 134 219 134 190 c 0,34,24
 134 169 134 169 139 146 c 1,25,-1
524 560 m 1,36,-1
 163 100 l 1,37,38
 199 60 199 60 279 60 c 256,39,40
 359 60 359 60 409 107.5 c 128,-1,41
 459 155 459 155 481 258 c 2,42,-1
 521 442 l 2,43,44
 529 479 529 479 529 515 c 0,45,35
 529 537 529 537 524 560 c 1,36,-1
EndSplineSet
Validated: 33
EndChar

StartChar: Thorn
Encoding: 222 222 160
Width: 592
GlyphClass: 2
Flags: W
LayerCount: 2
Fore
SplineSet
528.5 538.5 m 128,-1,1
 577 499 577 499 577 426 c 0,2,3
 577 407 577 407 571 378 c 0,4,5
 554 279 554 279 483 221 c 128,-1,6
 412 163 412 163 305 163 c 2,7,-1
 136 163 l 1,8,-1
 101 0 l 1,9,-1
 27 0 l 1,10,-1
 177 707 l 1,11,-1
 252 707 l 1,12,-1
 224 578 l 1,13,-1
 393 578 l 2,14,0
 480 578 480 578 528.5 538.5 c 128,-1,1
500 411 m 0,16,17
 500 511 500 511 373 511 c 2,18,-1
 210 511 l 1,19,-1
 151 230 l 1,20,-1
 313 230 l 2,21,22
 389 230 389 230 436.5 266 c 128,-1,23
 484 302 484 302 497 376 c 0,24,15
 500 395 500 395 500 411 c 0,16,17
EndSplineSet
Validated: 1
EndChar

StartChar: germandbls
Encoding: 223 223 161
Width: 518
GlyphClass: 2
Flags: W
LayerCount: 2
Fore
SplineSet
215 59 m 1,0,-1
 243 59 l 2,1,2
 290 59 290 59 314.5 75.5 c 128,-1,3
 339 92 339 92 352 125.5 c 128,-1,4
 365 159 365 159 381 230 c 0,5,6
 396 300 396 300 396 333 c 0,7,8
 396 370 396 370 376.5 386 c 128,-1,9
 357 402 357 402 309 402 c 2,10,-1
 288 402 l 1,11,-1
 301 466 l 1,12,-1
 329 466 l 2,13,14
 386 466 386 466 415 496.5 c 128,-1,15
 444 527 444 527 444 581 c 0,16,17
 444 615 444 615 420 632.5 c 128,-1,18
 396 650 396 650 349 650 c 0,19,20
 288 650 288 650 253 621 c 128,-1,21
 218 592 218 592 205 527 c 2,22,-1
 92 0 l 1,23,-1
 23 0 l 1,24,-1
 132 518 l 2,25,26
 152 615 152 615 205 664.5 c 128,-1,27
 258 714 258 714 356 714 c 0,28,29
 432 714 432 714 474.5 681 c 128,-1,30
 517 648 517 648 517 593 c 0,31,32
 517 542 517 542 492 500.5 c 128,-1,33
 467 459 467 459 420 437 c 1,34,35
 447 424 447 424 458 403.5 c 128,-1,36
 469 383 469 383 469 351 c 0,37,38
 469 309 469 309 452 230 c 0,39,40
 432 139 432 139 409 90.5 c 128,-1,41
 386 42 386 42 345 19 c 128,-1,42
 304 -4 304 -4 231 -4 c 2,43,-1
 202 -4 l 1,44,-1
 215 59 l 1,0,-1
EndSplineSet
Validated: 1
EndChar

StartChar: ae
Encoding: 230 230 168
Width: 831
GlyphClass: 2
Flags: W
LayerCount: 2
Fore
SplineSet
76 26 m 128,-1,1
 35 58 35 58 35 121 c 0,2,3
 35 172 35 172 62 212 c 128,-1,4
 89 252 89 252 137.5 273.5 c 128,-1,5
 186 295 186 295 249 295 c 2,6,-1
 384 295 l 1,7,8
 400 369 400 369 400 387 c 0,9,10
 400 468 400 468 301 468 c 0,11,12
 246 468 246 468 213 443.5 c 128,-1,13
 180 419 180 419 171 375 c 1,14,-1
 102 375 l 1,15,16
 116 447 116 447 171.5 486.5 c 128,-1,17
 227 526 227 526 312 526 c 0,18,19
 422 526 422 526 458 455 c 1,20,21
 489 492 489 492 535 509 c 128,-1,22
 581 526 581 526 632 526 c 0,23,24
 706 526 706 526 748 490 c 128,-1,25
 790 454 790 454 790 377 c 0,26,27
 790 343 790 343 781 307 c 2,28,-1
 768 246 l 1,29,-1
 444 246 l 1,30,-1
 438 215 l 2,31,32
 434 198 434 198 432 182 c 128,-1,33
 430 166 430 166 430 147 c 0,34,35
 430 99 430 99 458.5 77.5 c 128,-1,36
 487 56 487 56 536 56 c 0,37,38
 590 56 590 56 625 82 c 128,-1,39
 660 108 660 108 678 160 c 1,40,-1
 746 160 l 1,41,42
 720 77 720 77 664 35.5 c 128,-1,43
 608 -6 608 -6 532 -6 c 0,44,45
 409 -6 409 -6 374 76 c 1,46,47
 341 36 341 36 296.5 15 c 128,-1,48
 252 -6 252 -6 191 -6 c 0,49,0
 117 -6 117 -6 76 26 c 128,-1,1
709 298 m 1,50,51
 720 347 720 347 720 372 c 0,52,53
 720 463 720 463 617 463 c 0,54,55
 488 463 488 463 460 323 c 2,56,-1
 455 298 l 1,57,-1
 709 298 l 1,50,51
309.5 87 m 128,-1,59
 347 124 347 124 364 202 c 2,60,-1
 373 244 l 1,61,-1
 249 244 l 2,62,63
 180 244 180 244 142 212 c 128,-1,64
 104 180 104 180 104 129 c 0,65,66
 104 90 104 90 128.5 70 c 128,-1,67
 153 50 153 50 204 50 c 0,68,58
 272 50 272 50 309.5 87 c 128,-1,59
EndSplineSet
Validated: 1
EndChar

StartChar: ccedilla
Encoding: 231 231 169
Width: 516
GlyphClass: 2
Flags: W
LayerCount: 2
Fore
SplineSet
407 348 m 1,0,-1
 408 366 l 2,1,2
 408 415 408 415 382.5 439 c 128,-1,3
 357 463 357 463 306 463 c 0,4,5
 243 463 243 463 201 428.5 c 128,-1,6
 159 394 159 394 140 309 c 2,7,-1
 121 217 l 2,8,9
 114 185 114 185 114 158 c 0,10,11
 114 102 114 102 143.5 79 c 128,-1,12
 173 56 173 56 225 56 c 0,13,14
 286 56 286 56 322 86 c 128,-1,15
 358 116 358 116 368 171 c 1,16,-1
 434 171 l 1,17,18
 426 95 426 95 376.5 48.5 c 128,-1,19
 327 2 327 2 247 -5 c 1,20,-1
 168 -154 l 1,21,-1
 94 -154 l 1,22,-1
 184 -4 l 1,23,24
 118 3 118 3 80.5 40 c 128,-1,25
 43 77 43 77 43 147 c 0,26,27
 43 178 43 178 50 213 c 2,28,-1
 72 313 l 2,29,30
 118 526 118 526 310 526 c 0,31,32
 391 526 391 526 433 487.5 c 128,-1,33
 475 449 475 449 475 374 c 0,34,35
 475 357 475 357 474 348 c 1,36,-1
 407 348 l 1,0,-1
EndSplineSet
Validated: 1
EndChar

StartChar: eth
Encoding: 240 240 178
Width: 508
GlyphClass: 2
Flags: W
LayerCount: 2
Fore
SplineSet
419 508 m 2,0,1
 459 428 459 428 459 350 c 0,2,3
 459 316 459 316 451 273 c 2,4,-1
 439 217 l 2,5,6
 416 104 416 104 353 47.5 c 128,-1,7
 290 -9 290 -9 197 -9 c 0,8,9
 121 -9 121 -9 81.5 29 c 128,-1,10
 42 67 42 67 42 140 c 0,11,12
 42 176 42 176 50 212 c 2,13,-1
 62 268 l 2,14,15
 85 372 85 372 144 428.5 c 128,-1,16
 203 485 203 485 285 485 c 0,17,18
 327 485 327 485 353 471 c 1,19,-1
 304 566 l 1,20,-1
 193 535 l 1,21,-1
 189 590 l 1,22,-1
 280 615 l 1,23,-1
 232 707 l 1,24,-1
 317 707 l 1,25,-1
 353 637 l 1,26,-1
 462 668 l 1,27,-1
 465 612 l 1,28,-1
 378 588 l 1,29,-1
 419 508 l 2,0,1
386 327 m 0,31,32
 386 421 386 421 290 421 c 0,33,34
 165 421 165 421 133 270 c 2,35,-1
 121 212 l 2,36,37
 114 174 114 174 114 155 c 0,38,39
 114 58 114 58 212 57 c 0,40,41
 272 57 272 57 312 95.5 c 128,-1,42
 352 134 352 134 368 211 c 2,43,-1
 379 268 l 2,44,30
 386 307 386 307 386 327 c 0,31,32
EndSplineSet
Validated: 1
EndChar

StartChar: divide
Encoding: 247 247 185
Width: 524
GlyphClass: 2
Flags: W
LayerCount: 2
Fore
SplineSet
232.5 393.5 m 128,-1,1
 218 408 218 408 218 428 c 256,2,3
 218 448 218 448 232.5 462.5 c 128,-1,4
 247 477 247 477 267 477 c 256,5,6
 287 477 287 477 301.5 463 c 128,-1,7
 316 449 316 449 316 428 c 256,8,9
 316 408 316 408 302 393.5 c 128,-1,10
 288 379 288 379 267 379 c 256,11,0
 247 379 247 379 232.5 393.5 c 128,-1,1
63 316 m 1,12,-1
 471 316 l 1,13,-1
 471 249 l 1,14,-1
 63 249 l 1,15,-1
 63 316 l 1,12,-1
232.5 104.5 m 128,-1,17
 218 119 218 119 218 139 c 256,18,19
 218 159 218 159 232.5 173.5 c 128,-1,20
 247 188 247 188 267 188 c 256,21,22
 287 188 287 188 301.5 174 c 128,-1,23
 316 160 316 160 316 139 c 256,24,25
 316 119 316 119 302 104.5 c 128,-1,26
 288 90 288 90 267 90 c 256,27,16
 247 90 247 90 232.5 104.5 c 128,-1,17
EndSplineSet
Validated: 1
EndChar

StartChar: oslash
Encoding: 248 248 186
Width: 517
GlyphClass: 2
Flags: W
LayerCount: 2
Fore
SplineSet
453 467 m 1,0,1
 478 432 478 432 477 382 c 0,2,3
 477 354 477 354 469 313 c 2,4,-1
 446 207 l 2,5,6
 401 -6 401 -6 214 -6 c 0,7,8
 136 -6 136 -6 91 28 c 1,9,-1
 44 -31 l 1,10,-1
 0 -31 l 1,11,-1
 68 51 l 1,12,13
 41 84 41 84 41 139 c 0,14,15
 41 173 41 173 49 207 c 2,16,-1
 73 313 l 2,17,18
 121 526 121 526 307 526 c 0,19,20
 384 526 384 526 429 492 c 1,21,-1
 473 546 l 1,22,-1
 517 546 l 1,23,-1
 453 467 l 1,0,1
119 114 m 1,25,-1
 383 436 l 1,26,27
 357 463 357 463 304 463 c 0,28,29
 244 463 244 463 201.5 428.5 c 128,-1,30
 159 394 159 394 141 309 c 2,31,-1
 121 211 l 2,32,33
 114 179 114 179 114 153 c 0,34,24
 114 132 114 132 119 114 c 1,25,-1
400 403 m 1,36,-1
 137 82 l 1,37,38
 163 56 163 56 217 56 c 0,39,40
 275 56 275 56 317 90.5 c 128,-1,41
 359 125 359 125 377 211 c 2,42,-1
 397 309 l 2,43,44
 404 341 404 341 404 369 c 0,45,35
 404 390 404 390 400 403 c 1,36,-1
EndSplineSet
Validated: 33
EndChar

StartChar: thorn
Encoding: 254 254 192
Width: 524
GlyphClass: 2
Flags: W
LayerCount: 2
Fore
SplineSet
172 707 m 1,0,-1
 242 707 l 1,1,-1
 186 446 l 1,2,3
 216 485 216 485 254.5 505.5 c 128,-1,4
 293 526 293 526 338 526 c 0,5,6
 404 526 404 526 443 491.5 c 128,-1,7
 482 457 482 457 482 383 c 0,8,9
 482 351 482 351 472 304 c 2,10,-1
 451 207 l 2,11,12
 426 96 426 96 366 45 c 128,-1,13
 306 -6 306 -6 230 -6 c 0,14,15
 132 -6 132 -6 105 69 c 1,16,-1
 58 -156 l 1,17,-1
 -11 -156 l 1,18,-1
 172 707 l 1,0,-1
325 92.5 m 128,-1,20
 364 129 364 129 382 213 c 2,21,-1
 402 309 l 2,22,23
 409 341 409 341 410 368 c 0,24,25
 410 463 410 463 316 463 c 0,26,27
 254 463 254 463 212.5 419 c 128,-1,28
 171 375 171 375 156 303 c 2,29,-1
 140 232 l 2,30,31
 131 189 131 189 131 163 c 0,32,33
 131 114 131 114 156.5 85 c 128,-1,34
 182 56 182 56 233 56 c 0,35,19
 286 56 286 56 325 92.5 c 128,-1,20
EndSplineSet
Validated: 1
EndChar

StartChar: dotlessi
Encoding: 305 305 194
Width: 223
GlyphClass: 2
Flags: W
AnchorPoint: "Anchor-0" 167 519 basechar 0
LayerCount: 2
Fore
SplineSet
132 519 m 1,0,-1
 202 519 l 1,1,-1
 91 0 l 1,2,-1
 23 0 l 1,3,-1
 132 519 l 1,0,-1
EndSplineSet
Validated: 1
EndChar

StartChar: OE
Encoding: 338 338 195
Width: 970
GlyphClass: 2
Flags: W
LayerCount: 2
Fore
SplineSet
639 639 m 1,0,-1
 587 393 l 1,1,-1
 890 393 l 1,2,-1
 876 326 l 1,3,-1
 572 326 l 1,4,-1
 517 68 l 1,5,-1
 872 68 l 1,6,-1
 857 0 l 1,7,-1
 428 0 l 1,8,-1
 437 44 l 1,9,10
 370 -8 370 -8 268 -8 c 0,11,12
 172 -8 172 -8 115.5 37.5 c 128,-1,13
 59 83 59 83 59 179 c 0,14,15
 59 216 59 216 69 262 c 2,16,-1
 108 445 l 2,17,18
 165 715 165 715 398 716 c 0,19,20
 513 716 513 716 567 651 c 1,21,-1
 579 707 l 1,22,-1
 1008 707 l 1,23,-1
 993 639 l 1,24,-1
 639 639 l 1,0,-1
408.5 107.5 m 128,-1,26
 459 155 459 155 481 258 c 2,27,-1
 521 442 l 2,28,29
 529 479 529 479 529 515 c 0,30,31
 529 648 529 648 389 648 c 0,32,33
 306 648 306 648 256 600 c 128,-1,34
 206 552 206 552 182 442 c 2,35,-1
 142 258 l 2,36,37
 134 219 134 219 134 190 c 0,38,39
 134 60 134 60 279 60 c 0,40,25
 358 60 358 60 408.5 107.5 c 128,-1,26
EndSplineSet
Validated: 1
EndChar

StartChar: oe
Encoding: 339 339 196
Width: 842
GlyphClass: 2
Flags: W
AnchorPoint: "Anchor-0" 824 519 basechar 0
LayerCount: 2
Fore
SplineSet
755 489 m 128,-1,1
 800 452 800 452 800 375 c 0,2,3
 800 346 800 346 792 305 c 2,4,-1
 779 246 l 1,5,-1
 455 246 l 1,6,-1
 449 214 l 2,7,8
 442 182 442 182 441 155 c 0,9,10
 441 101 441 101 470.5 78.5 c 128,-1,11
 500 56 500 56 551 56 c 0,12,13
 604 56 604 56 640 83 c 128,-1,14
 676 110 676 110 689 160 c 1,15,-1
 757 160 l 1,16,17
 741 80 741 80 685 37 c 128,-1,18
 629 -6 629 -6 542 -6 c 0,19,20
 488 -6 488 -6 447.5 13.5 c 128,-1,21
 407 33 407 33 386 73 c 1,22,23
 323 -6 323 -6 209 -6 c 0,24,25
 132 -6 132 -6 87 29.5 c 128,-1,26
 42 65 42 65 42 141 c 0,27,28
 42 172 42 172 49 207 c 2,29,-1
 72 313 l 2,30,31
 96 424 96 424 158.5 475 c 128,-1,32
 221 526 221 526 311 526 c 0,33,34
 364 526 364 526 403.5 507.5 c 128,-1,35
 443 489 443 489 462 451 c 1,36,37
 527 527 527 527 635 526 c 0,38,0
 710 526 710 526 755 489 c 128,-1,1
318 90.5 m 128,-1,40
 358 125 358 125 376 211 c 2,41,-1
 396 309 l 2,42,43
 403 341 403 341 403 367 c 0,44,45
 403 463 403 463 301 463 c 0,46,47
 241 463 241 463 200 428.5 c 128,-1,48
 159 394 159 394 140 309 c 2,49,-1
 120 210 l 2,50,51
 114 178 114 178 114 155 c 0,52,53
 114 101 114 101 142 78.5 c 128,-1,54
 170 56 170 56 219 56 c 0,55,39
 278 56 278 56 318 90.5 c 128,-1,40
730 370 m 0,57,58
 730 420 730 420 703.5 441.5 c 128,-1,59
 677 463 677 463 629 463 c 0,60,61
 570 463 570 463 527.5 428.5 c 128,-1,62
 485 394 485 394 468 309 c 2,63,-1
 466 298 l 1,64,-1
 720 298 l 1,65,-1
 724 316 l 2,66,56
 730 347 730 347 730 370 c 0,57,58
EndSplineSet
Validated: 33
EndChar

StartChar: florin
Encoding: 402 402 202
Width: 416
GlyphClass: 2
Flags: W
LayerCount: 2
Fore
SplineSet
-59 -88 m 1,0,-1
 -31 -88 l 2,1,2
 10 -88 10 -88 32 -70.5 c 128,-1,3
 54 -53 54 -53 73 -4 c 2,4,-1
 203 355 l 1,5,-1
 116 355 l 1,6,-1
 129 420 l 1,7,-1
 226 420 l 1,8,-1
 275 555 l 2,9,10
 305 636 305 636 348.5 671.5 c 128,-1,11
 392 707 392 707 466 707 c 2,12,-1
 499 707 l 1,13,-1
 484 639 l 1,14,-1
 450 639 l 2,15,16
 411 639 411 639 388 620.5 c 128,-1,17
 365 602 365 602 348 556 c 2,18,-1
 298 420 l 1,19,-1
 406 420 l 1,20,-1
 392 355 l 1,21,-1
 274 355 l 1,22,-1
 144 -2 l 2,23,24
 113 -87 113 -87 71 -121.5 c 128,-1,25
 29 -156 29 -156 -45 -156 c 2,26,-1
 -75 -156 l 1,27,-1
 -59 -88 l 1,0,-1
EndSplineSet
Validated: 1
EndChar

StartChar: circumflex
Encoding: 710 710 203
Width: 498
GlyphClass: 2
Flags: W
LayerCount: 2
Fore
SplineSet
326 723 m 1,0,-1
 382 723 l 1,1,-1
 460 575 l 1,2,-1
 396 575 l 1,3,-1
 344 673 l 1,4,-1
 248 575 l 1,5,-1
 185 575 l 1,6,-1
 326 723 l 1,0,-1
EndSplineSet
Validated: 1
EndChar

StartChar: caron
Encoding: 711 711 204
Width: 512
GlyphClass: 2
Flags: W
LayerCount: 2
Fore
SplineSet
217 724 m 1,0,-1
 278 724 l 1,1,-1
 331 625 l 1,2,-1
 426 724 l 1,3,-1
 492 724 l 1,4,-1
 351 577 l 1,5,-1
 294 577 l 1,6,-1
 217 724 l 1,0,-1
EndSplineSet
Validated: 1
EndChar

StartChar: dotaccent
Encoding: 729 729 205
Width: 512
GlyphClass: 2
Flags: W
LayerCount: 2
Fore
SplineSet
295 696 m 1,0,-1
 369 696 l 1,1,-1
 349 604 l 1,2,-1
 275 604 l 1,3,-1
 295 696 l 1,0,-1
EndSplineSet
Validated: 1
EndChar

StartChar: ring
Encoding: 730 730 206
Width: 512
GlyphClass: 2
Flags: W
LayerCount: 2
Fore
SplineSet
275 599 m 128,-1,1
 249 626 249 626 249 666 c 0,2,3
 249 707 249 707 275 733.5 c 128,-1,4
 301 760 301 760 342 760 c 0,5,6
 382 760 382 760 408.5 733.5 c 128,-1,7
 435 707 435 707 435 666 c 0,8,9
 435 626 435 626 408.5 599 c 128,-1,10
 382 572 382 572 342 572 c 0,11,0
 301 572 301 572 275 599 c 128,-1,1
379.5 626.5 m 128,-1,13
 394 642 394 642 394 666 c 256,14,15
 394 690 394 690 379.5 705.5 c 128,-1,16
 365 721 365 721 342 721 c 256,17,18
 319 721 319 721 304 705 c 128,-1,19
 289 689 289 689 289 666 c 256,20,21
 289 642 289 642 304 626.5 c 128,-1,22
 319 611 319 611 342 611 c 256,23,12
 365 611 365 611 379.5 626.5 c 128,-1,13
EndSplineSet
Validated: 1
EndChar

StartChar: tilde
Encoding: 732 732 207
Width: 498
GlyphClass: 2
Flags: W
LayerCount: 2
Fore
SplineSet
211 645 m 1,0,1
 233 664 233 664 251 674 c 128,-1,2
 269 684 269 684 290 684 c 0,3,4
 306 684 306 684 318.5 679 c 128,-1,5
 331 674 331 674 346 664 c 0,6,7
 360 654 360 654 371.5 649 c 128,-1,8
 383 644 383 644 396 644 c 0,9,10
 414 644 414 644 430 653 c 128,-1,11
 446 662 446 662 472 684 c 1,12,-1
 459 622 l 1,13,14
 418 584 418 584 380 584 c 0,15,16
 363 584 363 584 350.5 589 c 128,-1,17
 338 594 338 594 322 604 c 256,18,19
 306 614 306 614 296 618.5 c 128,-1,20
 286 623 286 623 273 623 c 0,21,22
 255 623 255 623 239 614 c 128,-1,23
 223 605 223 605 198 583 c 1,24,-1
 211 645 l 1,0,1
EndSplineSet
Validated: 1
EndChar

StartChar: gravecomb
Encoding: 768 768 208
Width: 0
GlyphClass: 4
Flags: W
AnchorPoint: "Anchor-0" 55 519 mark 0
LayerCount: 2
Fore
SplineSet
-26 714 m 1,0,-1
 54 714 l 1,1,-1
 129 586 l 1,2,-1
 71 586 l 1,3,-1
 -26 714 l 1,0,-1
EndSplineSet
Validated: 1
EndChar

StartChar: acutecomb
Encoding: 769 769 209
Width: 0
GlyphClass: 4
Flags: W
AnchorPoint: "Anchor-0" 55 519 mark 0
LayerCount: 2
Fore
SplineSet
129 714 m 1,0,-1
 215 714 l 1,1,-1
 66 586 l 1,2,-1
 1 586 l 1,3,-1
 129 714 l 1,0,-1
EndSplineSet
Validated: 1
EndChar

StartChar: uni0302
Encoding: 770 770 210
Width: 0
GlyphClass: 4
Flags: W
AnchorPoint: "Anchor-0" 55 519 mark 0
LayerCount: 2
Fore
SplineSet
71 723 m 1,0,-1
 127 723 l 1,1,-1
 205 575 l 1,2,-1
 141 575 l 1,3,-1
 89 673 l 1,4,-1
 -7 575 l 1,5,-1
 -70 575 l 1,6,-1
 71 723 l 1,0,-1
EndSplineSet
Validated: 1
EndChar

StartChar: tildecomb
Encoding: 771 771 211
Width: 0
GlyphClass: 4
Flags: W
AnchorPoint: "Anchor-0" 55 519 mark 0
LayerCount: 2
Fore
SplineSet
-45 645 m 1,0,1
 -23 664 -23 664 -5 674 c 128,-1,2
 13 684 13 684 34 684 c 0,3,4
 50 684 50 684 62.5 679 c 128,-1,5
 75 674 75 674 90 664 c 0,6,7
 104 654 104 654 115.5 649 c 128,-1,8
 127 644 127 644 140 644 c 0,9,10
 158 644 158 644 174 653 c 128,-1,11
 190 662 190 662 216 684 c 1,12,-1
 203 622 l 1,13,14
 162 584 162 584 124 584 c 0,15,16
 107 584 107 584 94.5 589 c 128,-1,17
 82 594 82 594 66 604 c 256,18,19
 50 614 50 614 40 618.5 c 128,-1,20
 30 623 30 623 17 623 c 0,21,22
 -1 623 -1 623 -17 614 c 128,-1,23
 -33 605 -33 605 -58 583 c 1,24,-1
 -45 645 l 1,0,1
EndSplineSet
Validated: 1
EndChar

StartChar: uni0308
Encoding: 776 776 212
Width: 0
GlyphClass: 4
Flags: W
AnchorPoint: "Anchor-0" 55 519 mark 0
LayerCount: 2
Fore
SplineSet
-38 680 m 1,0,-1
 40 680 l 1,1,-1
 22 592 l 1,2,-1
 -56 592 l 1,3,-1
 -38 680 l 1,0,-1
137 680 m 1,4,-1
 215 680 l 1,5,-1
 197 592 l 1,6,-1
 119 592 l 1,7,-1
 137 680 l 1,4,-1
EndSplineSet
Validated: 1
EndChar

StartChar: uni030A
Encoding: 778 778 213
Width: 0
GlyphClass: 4
Flags: W
AnchorPoint: "Anchor-0" 55 519 mark 0
LayerCount: 2
Fore
SplineSet
19 599 m 128,-1,1
 -7 626 -7 626 -7 666 c 0,2,3
 -7 707 -7 707 19 733.5 c 128,-1,4
 45 760 45 760 86 760 c 0,5,6
 126 760 126 760 152.5 733.5 c 128,-1,7
 179 707 179 707 179 666 c 0,8,9
 179 626 179 626 152.5 599 c 128,-1,10
 126 572 126 572 86 572 c 0,11,0
 45 572 45 572 19 599 c 128,-1,1
124 626.5 m 128,-1,13
 139 642 139 642 139 666 c 256,14,15
 139 690 139 690 124 705.5 c 128,-1,16
 109 721 109 721 86 721 c 256,17,18
 63 721 63 721 48 705 c 128,-1,19
 33 689 33 689 33 666 c 256,20,21
 33 642 33 642 48 626.5 c 128,-1,22
 63 611 63 611 86 611 c 256,23,12
 109 611 109 611 124 626.5 c 128,-1,13
EndSplineSet
Validated: 1
EndChar

StartChar: endash
Encoding: 8211 8211 214
Width: 427
GlyphClass: 2
Flags: W
LayerCount: 2
Fore
SplineSet
28 389 m 1,0,-1
 455 389 l 1,1,-1
 440 322 l 1,2,-1
 13 322 l 1,3,-1
 28 389 l 1,0,-1
EndSplineSet
Validated: 1
EndChar

StartChar: emdash
Encoding: 8212 8212 215
Width: 852
GlyphClass: 2
Flags: W
LayerCount: 2
Fore
SplineSet
28 389 m 1,0,-1
 881 389 l 1,1,-1
 866 322 l 1,2,-1
 13 322 l 1,3,-1
 28 389 l 1,0,-1
EndSplineSet
Validated: 1
EndChar

StartChar: quoteleft
Encoding: 8216 8216 216
Width: 178
GlyphClass: 2
Flags: W
LayerCount: 2
Fore
SplineSet
170 486 m 1,0,-1
 102 486 l 1,1,-1
 138 658 l 1,2,-1
 222 722 l 1,3,-1
 170 486 l 1,0,-1
167 707 m 1024,4,-1
EndSplineSet
Validated: 1
EndChar

StartChar: quoteright
Encoding: 8217 8217 217
Width: 178
GlyphClass: 2
Flags: W
LayerCount: 2
Fore
SplineSet
151 707 m 1,0,-1
 218 707 l 1,1,-1
 182 535 l 1,2,-1
 98 471 l 1,3,-1
 151 707 l 1,0,-1
EndSplineSet
Validated: 1
EndChar

StartChar: quotedblleft
Encoding: 8220 8220 219
Width: 320
GlyphClass: 2
Flags: W
LayerCount: 2
Fore
SplineSet
171 486 m 1,0,-1
 103 486 l 1,1,-1
 139 658 l 1,2,-1
 223 722 l 1,3,-1
 171 486 l 1,0,-1
312 486 m 1,4,-1
 245 486 l 1,5,-1
 281 658 l 1,6,-1
 365 722 l 1,7,-1
 312 486 l 1,4,-1
176 707 m 1024,8,-1
EndSplineSet
Validated: 1
EndChar

StartChar: quotedblright
Encoding: 8221 8221 220
Width: 320
GlyphClass: 2
Flags: W
LayerCount: 2
Fore
SplineSet
152 708 m 1,0,-1
 219 708 l 1,1,-1
 183 536 l 1,2,-1
 99 472 l 1,3,-1
 152 708 l 1,0,-1
293 708 m 1,4,-1
 360 708 l 1,5,-1
 325 536 l 1,6,-1
 241 472 l 1,7,-1
 293 708 l 1,4,-1
EndSplineSet
Validated: 1
EndChar

StartChar: dagger
Encoding: 8224 8224 222
Width: 539
GlyphClass: 2
Flags: W
LayerCount: 2
Fore
SplineSet
490 390 m 1,0,-1
 336 390 l 1,1,-1
 220 -156 l 1,2,-1
 144 -156 l 1,3,-1
 261 390 l 1,4,-1
 104 390 l 1,5,-1
 119 457 l 1,6,-1
 275 457 l 1,7,-1
 329 707 l 1,8,-1
 402 707 l 1,9,-1
 349 457 l 1,10,-1
 505 457 l 1,11,-1
 490 390 l 1,0,-1
EndSplineSet
Validated: 1
EndChar

StartChar: daggerdbl
Encoding: 8225 8225 223
Width: 539
GlyphClass: 2
Flags: W
LayerCount: 2
Fore
SplineSet
337 393 m 1,0,-1
 288 161 l 1,1,-1
 442 161 l 1,2,-1
 428 93 l 1,3,-1
 273 93 l 1,4,-1
 220 -156 l 1,5,-1
 145 -156 l 1,6,-1
 199 93 l 1,7,-1
 42 93 l 1,8,-1
 56 161 l 1,9,-1
 213 161 l 1,10,-1
 262 393 l 1,11,-1
 105 393 l 1,12,-1
 120 461 l 1,13,-1
 276 461 l 1,14,-1
 329 707 l 1,15,-1
 403 707 l 1,16,-1
 351 461 l 1,17,-1
 506 461 l 1,18,-1
 492 393 l 1,19,-1
 337 393 l 1,0,-1
EndSplineSet
Validated: 1
EndChar

StartChar: bullet
Encoding: 8226 8226 224
Width: 489
GlyphClass: 2
Flags: W
LayerCount: 2
Fore
SplineSet
167 225.5 m 128,-1,1
 131 261 131 261 131 315 c 256,2,3
 131 369 131 369 167 404.5 c 128,-1,4
 203 440 203 440 257 440 c 256,5,6
 311 440 311 440 346.5 405 c 128,-1,7
 382 370 382 370 382 315 c 256,8,9
 382 261 382 261 346.5 225.5 c 128,-1,10
 311 190 311 190 257 190 c 256,11,0
 203 190 203 190 167 225.5 c 128,-1,1
EndSplineSet
Validated: 1
EndChar

StartChar: perthousand
Encoding: 8240 8240 226
Width: 1275
GlyphClass: 2
Flags: W
LayerCount: 2
Fore
SplineSet
85 367 m 0,1,2
 85 396 85 396 92 425 c 2,3,-1
 123 567 l 2,4,5
 138 640 138 640 175.5 677 c 128,-1,6
 213 714 213 714 274 714 c 0,7,8
 376 714 376 714 377 623 c 0,9,10
 377 598 377 598 371 567 c 2,11,-1
 341 425 l 2,12,13
 326 349 326 349 289 311 c 128,-1,14
 252 273 252 273 187 273 c 0,15,0
 85 274 85 274 85 367 c 0,1,2
711 707 m 1,16,-1
 774 707 l 1,17,-1
 242 0 l 1,18,-1
 177 0 l 1,19,-1
 711 707 l 1,16,-1
245.5 354.5 m 128,-1,21
 261 376 261 376 271 428 c 2,22,-1
 299 561 l 2,23,24
 306 597 306 597 306 611 c 0,25,26
 306 633 306 633 296 643 c 128,-1,27
 286 653 286 653 263 653 c 0,28,29
 232 653 232 653 217 632 c 128,-1,30
 202 611 202 611 191 561 c 2,31,-1
 163 428 l 2,32,33
 156 392 156 392 156 376 c 0,34,35
 156 353 156 353 166 343 c 128,-1,36
 176 333 176 333 199 333 c 0,37,20
 230 333 230 333 245.5 354.5 c 128,-1,21
572 87 m 0,39,40
 572 116 572 116 580 145 c 2,41,-1
 610 288 l 2,42,43
 625 361 625 361 662.5 397.5 c 128,-1,44
 700 434 700 434 762 434 c 0,45,46
 864 434 864 434 864 343 c 0,47,48
 864 318 864 318 858 288 c 2,49,-1
 828 145 l 2,50,51
 813 69 813 69 776 31.5 c 128,-1,52
 739 -6 739 -6 675 -6 c 0,53,38
 572 -6 572 -6 572 87 c 0,39,40
937 87 m 0,55,56
 937 116 937 116 944 145 c 2,57,-1
 975 288 l 2,58,59
 990 361 990 361 1027.5 397.5 c 128,-1,60
 1065 434 1065 434 1126 434 c 0,61,62
 1228 434 1228 434 1229 343 c 0,63,64
 1229 318 1229 318 1223 288 c 2,65,-1
 1193 145 l 2,66,67
 1178 69 1178 69 1141 31.5 c 128,-1,68
 1104 -6 1104 -6 1039 -6 c 0,69,54
 937 -6 937 -6 937 87 c 0,55,56
733.5 74.5 m 128,-1,71
 749 96 749 96 759 148 c 2,72,-1
 786 282 l 2,73,74
 793 318 793 318 794 332 c 0,75,76
 794 354 794 354 783.5 364 c 128,-1,77
 773 374 773 374 751 374 c 0,78,79
 720 374 720 374 704.5 353 c 128,-1,80
 689 332 689 332 679 282 c 2,81,-1
 650 148 l 2,82,83
 643 112 643 112 643 96 c 0,84,85
 643 73 643 73 653.5 63 c 128,-1,86
 664 53 664 53 686 53 c 0,87,70
 718 53 718 53 733.5 74.5 c 128,-1,71
1097.5 74.5 m 128,-1,89
 1113 96 1113 96 1123 148 c 2,90,-1
 1151 282 l 2,91,92
 1158 318 1158 318 1158 332 c 0,93,94
 1158 354 1158 354 1148 364 c 128,-1,95
 1138 374 1138 374 1115 374 c 0,96,97
 1084 374 1084 374 1069 353 c 128,-1,98
 1054 332 1054 332 1043 282 c 2,99,-1
 1015 148 l 2,100,101
 1008 112 1008 112 1008 96 c 0,102,103
 1008 73 1008 73 1018 63 c 128,-1,104
 1028 53 1028 53 1051 53 c 0,105,88
 1082 53 1082 53 1097.5 74.5 c 128,-1,89
EndSplineSet
Validated: 1
EndChar

StartChar: guilsinglleft
Encoding: 8249 8249 227
Width: 302
GlyphClass: 2
Flags: W
LayerCount: 2
Fore
SplineSet
28 270 m 1,0,-1
 270 473 l 1,1,-1
 253 388 l 1,2,-1
 112 270 l 1,3,-1
 203 153 l 1,4,-1
 184 68 l 1,5,-1
 28 270 l 1,0,-1
EndSplineSet
Validated: 1
EndChar

StartChar: guilsinglright
Encoding: 8250 8250 228
Width: 303
GlyphClass: 2
Flags: W
LayerCount: 2
Fore
SplineSet
55 153 m 1,0,-1
 196 270 l 1,1,-1
 104 388 l 1,2,-1
 123 473 l 1,3,-1
 280 270 l 1,4,-1
 37 68 l 1,5,-1
 55 153 l 1,0,-1
EndSplineSet
Validated: 1
EndChar

StartChar: Euro
Encoding: 8364 8364 229
Width: 567
GlyphClass: 2
Flags: W
LayerCount: 2
Fore
SplineSet
140.5 31 m 128,-1,1
 95 72 95 72 95 140 c 0,2,3
 95 172 95 172 103 211 c 2,4,-1
 114 261 l 1,5,-1
 52 261 l 1,6,-1
 65 319 l 1,7,-1
 126 319 l 1,8,-1
 141 393 l 1,9,-1
 80 393 l 1,10,-1
 92 451 l 1,11,-1
 154 451 l 1,12,-1
 165 504 l 2,13,14
 185 599 185 599 244.5 658 c 128,-1,15
 304 717 304 717 396 717 c 0,16,17
 476 717 476 717 517.5 676 c 128,-1,18
 559 635 559 635 559 554 c 1,19,-1
 492 554 l 1,20,21
 492 649 492 649 390 649 c 0,22,23
 322 649 322 649 288 611 c 128,-1,24
 254 573 254 573 240 505 c 2,25,-1
 228 451 l 1,26,-1
 440 451 l 1,27,-1
 417 393 l 1,28,-1
 216 393 l 1,29,-1
 201 319 l 1,30,-1
 387 319 l 1,31,-1
 365 261 l 1,32,-1
 188 261 l 1,33,-1
 177 209 l 2,34,35
 171 181 171 181 171 156 c 0,36,37
 171 111 171 111 196.5 84 c 128,-1,38
 222 57 222 57 274 57 c 0,39,40
 325 57 325 57 357 81 c 128,-1,41
 389 105 389 105 407 153 c 1,42,-1
 477 153 l 1,43,44
 453 75 453 75 400 32.5 c 128,-1,45
 347 -10 347 -10 269 -10 c 0,46,0
 186 -10 186 -10 140.5 31 c 128,-1,1
EndSplineSet
Validated: 1
EndChar

StartChar: trademark
Encoding: 8482 8482 230
Width: 924
GlyphClass: 2
Flags: W
LayerCount: 2
Fore
SplineSet
254 652 m 1,0,-1
 136 652 l 1,1,-1
 136 707 l 1,2,-1
 431 707 l 1,3,-1
 431 652 l 1,4,-1
 314 652 l 1,5,-1
 314 303 l 1,6,-1
 254 303 l 1,7,-1
 254 652 l 1,0,-1
502 707 m 1,8,-1
 557 707 l 1,9,-1
 677 436 l 1,10,-1
 680 436 l 1,11,-1
 797 707 l 1,12,-1
 852 707 l 1,13,-1
 852 303 l 1,14,-1
 795 303 l 1,15,-1
 795 570 l 1,16,-1
 793 570 l 1,17,-1
 699 362 l 1,18,-1
 655 362 l 1,19,-1
 561 570 l 1,20,-1
 559 570 l 1,21,-1
 559 303 l 1,22,-1
 502 303 l 1,23,-1
 502 707 l 1,8,-1
EndSplineSet
Validated: 1
EndChar

StartChar: t_t
Encoding: 65539 -1 234
Width: 652
GlyphClass: 3
Flags: W
LayerCount: 2
Fore
SplineSet
456 132 m 2,0,1
 453 119 453 119 453 109 c 0,2,3
 453 62 453 62 508 61 c 2,4,-1
 549 61 l 1,5,-1
 536 0 l 1,6,-1
 483 0 l 2,7,8
 434 0 434 0 407.5 24.5 c 128,-1,9
 381 49 381 49 381 92 c 0,10,11
 381 111 381 111 385 129 c 2,12,-1
 457 464 l 1,13,-1
 233 464 l 1,14,-1
 163 132 l 2,15,16
 160 119 160 119 160 109 c 0,17,18
 160 62 160 62 215 61 c 2,19,-1
 256 61 l 1,20,-1
 243 0 l 1,21,-1
 190 0 l 2,22,23
 141 0 141 0 114.5 24.5 c 128,-1,24
 88 49 88 49 88 92 c 0,25,26
 88 111 88 111 92 129 c 2,27,-1
 164 464 l 1,28,-1
 83 464 l 1,29,-1
 94 519 l 1,30,-1
 175 519 l 1,31,-1
 201 638 l 1,32,-1
 278 671 l 1,33,-1
 245 519 l 1,34,-1
 468 519 l 1,35,-1
 494 638 l 1,36,-1
 570 671 l 1,37,-1
 538 519 l 1,38,-1
 655 519 l 1,39,-1
 644 464 l 1,40,-1
 526 464 l 1,41,-1
 456 132 l 2,0,1
EndSplineSet
Validated: 1
Ligature2: "'dlig' Discretionary Ligatures lookup 4 subtable" t t
EndChar

StartChar: zero.sups
Encoding: 65550 -1 245
Width: 364
GlyphClass: 2
Flags: W
LayerCount: 2
Fore
SplineSet
120 527 m 0,1,2
 120 556 120 556 127 586 c 2,3,-1
 158 728 l 2,4,5
 173 801 173 801 210.5 837.5 c 128,-1,6
 248 874 248 874 309 874 c 0,7,8
 411 874 411 874 412 783 c 0,9,10
 412 758 412 758 406 728 c 2,11,-1
 376 586 l 2,12,13
 361 510 361 510 324 472 c 128,-1,14
 287 434 287 434 222 434 c 0,15,0
 120 434 120 434 120 527 c 0,1,2
280.5 515.5 m 128,-1,17
 296 537 296 537 306 589 c 2,18,-1
 334 722 l 2,19,20
 341 758 341 758 341 772 c 0,21,22
 341 794 341 794 331 804 c 128,-1,23
 321 814 321 814 298 814 c 0,24,25
 267 814 267 814 252 793 c 128,-1,26
 237 772 237 772 226 722 c 2,27,-1
 198 589 l 2,28,29
 191 553 191 553 190 537 c 0,30,31
 190 514 190 514 200.5 504 c 128,-1,32
 211 494 211 494 233 494 c 0,33,16
 265 494 265 494 280.5 515.5 c 128,-1,17
EndSplineSet
Validated: 1
EndChar

StartChar: one.sups
Encoding: 65551 -1 246
Width: 257
GlyphClass: 2
Flags: W
LayerCount: 2
Fore
SplineSet
244 793 m 1,0,-1
 157 736 l 1,1,-1
 172 812 l 1,2,-1
 259 867 l 1,3,-1
 331 867 l 1,4,-1
 240 440 l 1,5,-1
 169 440 l 1,6,-1
 244 793 l 1,0,-1
EndSplineSet
Validated: 1
EndChar

StartChar: two.sups
Encoding: 65552 -1 247
Width: 394
GlyphClass: 2
Flags: W
LayerCount: 2
Fore
SplineSet
129 494 m 1,0,-1
 311 686 l 2,1,2
 355 733 355 733 355 777 c 0,3,4
 355 796 355 796 344.5 806.5 c 128,-1,5
 334 817 334 817 313 817 c 0,6,7
 288 817 288 817 271 801.5 c 128,-1,8
 254 786 254 786 248 756 c 2,9,-1
 246 744 l 1,10,-1
 179 744 l 1,11,-1
 182 760 l 2,12,13
 193 812 193 812 232.5 843 c 128,-1,14
 272 874 272 874 329 874 c 0,15,16
 375 874 375 874 402 851.5 c 128,-1,17
 429 829 429 829 429 792 c 0,18,19
 429 751 429 751 411 718 c 128,-1,20
 393 685 393 685 360 651 c 2,21,-1
 219 501 l 1,22,-1
 369 501 l 1,23,-1
 356 440 l 1,24,-1
 117 440 l 1,25,-1
 129 494 l 1,0,-1
EndSplineSet
Validated: 1
EndChar

StartChar: three.sups
Encoding: 65553 -1 248
Width: 367
GlyphClass: 2
Flags: W
LayerCount: 2
Fore
SplineSet
145.5 455 m 128,-1,1
 118 476 118 476 118 513 c 0,2,3
 118 526 118 526 125 555 c 1,4,-1
 186 555 l 1,5,6
 183 539 183 539 183 531 c 0,7,8
 183 513 183 513 195.5 501.5 c 128,-1,9
 208 490 208 490 229 490 c 0,10,11
 265 490 265 490 285.5 520 c 128,-1,12
 306 550 306 550 306 587 c 0,13,14
 306 609 306 609 293.5 621 c 128,-1,15
 281 633 281 633 256 633 c 2,16,-1
 234 633 l 1,17,-1
 247 690 l 1,18,-1
 268 690 l 2,19,20
 302 690 302 690 321 716 c 128,-1,21
 340 742 340 742 340 776 c 0,22,23
 340 795 340 795 329 806 c 128,-1,24
 318 817 318 817 298 817 c 0,25,26
 272 817 272 817 255.5 802.5 c 128,-1,27
 239 788 239 788 233 764 c 2,28,-1
 231 754 l 1,29,-1
 169 754 l 1,30,-1
 171 765 l 2,31,32
 180 815 180 815 216.5 844.5 c 128,-1,33
 253 874 253 874 308 874 c 0,34,35
 354 874 354 874 382 850.5 c 128,-1,36
 410 827 410 827 410 785 c 0,37,38
 410 747 410 747 389 713 c 128,-1,39
 368 679 368 679 330 666 c 1,40,41
 353 658 353 658 364 639 c 128,-1,42
 375 620 375 620 375 594 c 0,43,44
 375 551 375 551 355 514.5 c 128,-1,45
 335 478 335 478 299.5 456 c 128,-1,46
 264 434 264 434 221 434 c 0,47,0
 173 434 173 434 145.5 455 c 128,-1,1
EndSplineSet
Validated: 1
EndChar

StartChar: four.sups
Encoding: 65554 -1 249
Width: 353
GlyphClass: 2
Flags: W
LayerCount: 2
Fore
SplineSet
367 517 m 1,0,-1
 327 517 l 1,1,-1
 310 440 l 1,2,-1
 240 440 l 1,3,-1
 256 517 l 1,4,-1
 96 517 l 1,5,-1
 109 578 l 1,6,-1
 290 867 l 1,7,-1
 359 867 l 1,8,-1
 178 578 l 1,9,-1
 269 578 l 1,10,-1
 291 678 l 1,11,-1
 360 678 l 1,12,-1
 339 578 l 1,13,-1
 380 578 l 1,14,-1
 367 517 l 1,0,-1
EndSplineSet
Validated: 1
EndChar

StartChar: glyph249
Encoding: 65555 -1 250
Width: 182
GlyphClass: 2
Flags: W
LayerCount: 2
Fore
SplineSet
350 707 m 1,0,-1
 414 707 l 1,1,-1
 -119 0 l 1,2,-1
 -183 0 l 1,3,-1
 350 707 l 1,0,-1
EndSplineSet
Validated: 1
EndChar
